<svg width="56" height="24" viewBox="0 0 56 24" fill="none" xmlns="http://www.w3.org/2000/svg">
<path d="M49.977 19L52.759 18.8249C54.0188 18.7463 55 17.7012 55 16.4386V15.3236C55 14.2708 54.459 13.2913 53.5678 12.7308L49.9775 10.4735L40.9799 1.98877C40.3066 1.35344 39.4159 1 38.49 1H3.51477L1 11.105V18.0524L11.3632 18.9995H49.977V19Z" fill="#00395F"/>
<path d="M50.0187 20H11.3325L0.863001 19.0441C0.374202 18.9995 0 18.5875 0 18.0954V11.1117C0 11.0343 0.00923279 10.9575 0.0276986 10.8817L2.54773 0.722616C2.65363 0.297548 3.03381 0 3.46938 0H38.5103C39.6845 0 40.8016 0.445777 41.6559 1.25395L50.6026 9.71935L54.1208 11.9395C55.2972 12.6828 56 13.958 56 15.352V16.4725C56 18.2398 54.6232 19.7112 52.8663 19.8229L50.0779 19.9984C50.0584 19.9995 50.0383 20 50.0187 20ZM1.89817 17.2256L11.4183 18.0992L49.9889 18.0954L52.7462 17.9215C53.5066 17.873 54.1018 17.2371 54.1018 16.4725V15.3515C54.1018 14.6169 53.7309 13.9433 53.1107 13.552L49.5136 11.2828C49.4615 11.249 49.4121 11.212 49.367 11.1689L40.353 2.63924C39.8534 2.16512 39.1978 1.90463 38.5103 1.90463H4.21073L1.89817 11.2289V17.2256Z" fill="#00395F"/>
<path d="M35 10H5L6.17642 6H35V10Z" fill="white"/>
<path d="M35.1158 11.3893H4.74509C4.45346 11.3893 4.17703 11.2552 3.99728 11.0238C3.81752 10.793 3.75344 10.4932 3.82458 10.2092L5.01608 5.46384C5.12143 5.04134 5.5005 4.74536 5.93604 4.74536H35.1158C35.6404 4.74536 36.0651 5.17004 36.0651 5.69465V10.44C36.0651 10.9646 35.6404 11.3893 35.1158 11.3893ZM5.96211 9.49126H34.1665V6.64394H6.67679L5.96211 9.49126Z" fill="white"/>
<path d="M14.7106 12.9809C14.2322 12.9809 13.8455 12.3724 13.8455 11.6207V4.82157C13.8455 4.06991 14.2322 3.46143 14.7106 3.46143C15.189 3.46143 15.5763 4.06991 15.5763 4.82157V11.6207C15.5763 12.3724 15.189 12.9809 14.7106 12.9809Z" fill="#00395F"/>
<path d="M25.9606 12.9809C25.4822 12.9809 25.095 12.3724 25.095 11.6207V4.82157C25.095 4.06991 25.4822 3.46143 25.9606 3.46143C26.439 3.46143 26.8258 4.06991 26.8258 4.82157V11.6207C26.8258 12.3724 26.439 12.9809 25.9606 12.9809Z" fill="#00395F"/>
<path d="M39 6.00324H40.5713L46 10H39C39 10 39.1299 5.8682 39 6.00324Z" fill="white"/>
<path d="M46.0001 11H39.0005C38.731 11 38.473 10.9068 38.2847 10.7415C38.0959 10.5756 37.9935 10.3519 38.0003 10.1209C38.049 8.46611 38.0764 6.59991 38.0444 6.11079C37.9505 5.84784 38.0078 5.55937 38.2075 5.33664C38.4192 5.10116 38.7671 4.98489 39.0898 5.00157H40.5718C40.8224 5.00157 41.0638 5.08301 41.2481 5.22872L46.677 9.51204C46.9809 9.75096 47.081 10.1248 46.9317 10.454C46.7823 10.7836 46.4121 11 46.0001 11ZM40.0259 9.28539H43.4367L40.1821 6.71667H40.0705C40.0785 7.30734 40.0585 8.12957 40.0259 9.28539Z" fill="white"/>
<path d="M55.0506 16H0.949355C0.424711 16 0 15.5525 0 14.9997C0 14.4469 0.424711 14 0.949355 14H55.0506C55.5753 14 56 14.4469 56 14.9997C56 15.5525 55.5753 16 55.0506 16Z" fill="#00395F"/>
<path d="M18 19.5C18 21.4334 16.2096 23 14 23C11.791 23 10 21.4334 10 19.5C10 17.5671 11.791 16 14 16C16.2096 16 18 17.5671 18 19.5Z" fill="white"/>
<path d="M14.4997 24C12.0188 24 10 21.9807 10 19.4997C10 17.0188 12.0188 15 14.4997 15C16.9812 15 19 17.0183 19 19.4992C19 21.9807 16.9812 24 14.4997 24ZM14.4997 16.8172C13.0199 16.8172 11.8166 18.021 11.8166 19.4992C11.8166 20.979 13.0204 22.1828 14.4997 22.1828C15.9796 22.1828 17.1834 20.979 17.1834 19.4992C17.1834 18.021 15.9796 16.8172 14.4997 16.8172Z" fill="#00395F"/>
<path d="M48 19.5C48 21.4334 46.4334 23 44.5 23C42.5671 23 41 21.4334 41 19.5C41 17.5671 42.5671 16 44.5 16C46.4334 16 48 17.5671 48 19.5Z" fill="white"/>
<path d="M44.4997 24C42.0188 24 40 21.9805 40 19.4995C40 17.0184 42.0188 15 44.4997 15C46.9812 15 49 17.0184 49 19.4995C49 21.9805 46.9812 24 44.4997 24ZM44.4997 16.8167C43.0199 16.8167 41.8166 18.0206 41.8166 19.499C41.8166 20.9789 43.0204 22.1827 44.4997 22.1827C45.9796 22.1827 47.1834 20.9789 47.1834 19.499C47.1834 18.0206 45.9796 16.8167 44.4997 16.8167Z" fill="#00395F"/>
<path d="M15 18.9997C15 19.5518 14.5518 20 13.9997 20C13.4476 20 13 19.5518 13 18.9997C13 18.4476 13.4476 18 13.9997 18C14.5518 18 15 18.4476 15 18.9997Z" fill="#00395F"/>
<path d="M46 18.9997C46 19.5518 45.5524 20 44.9997 20C44.4476 20 44 19.5518 44 18.9997C44 18.4476 44.4476 18 44.9997 18C45.5524 18 46 18.4476 46 18.9997Z" fill="#00395F"/>
<path d="M54.0003 15H51.0002C50.4475 15 50 14.5531 50 14.0003C50 13.4475 50.4475 13 51.0002 13H54.0003C54.5531 13 55 13.4475 55 14.0003C55 14.5531 54.5531 15 54.0003 15Z" fill="#FC8C29"/>
<path d="M3.99977 15H1.00023C0.447471 15 0 14.5531 0 14.0003C0 13.4475 0.447471 13 1.00023 13H3.99977C4.55253 13 5 13.4475 5 14.0003C5 14.5531 4.55253 15 3.99977 15Z" fill="#F53E28"/>
</svg>
