<svg width="48" height="24" viewBox="0 0 48 24" fill="none" xmlns="http://www.w3.org/2000/svg">
<path d="M3.98522 0.77771H26.7009C28.4407 0.77771 30.1146 1.44033 31.3827 2.63138L38.4767 9.29261H39.8161C43.9043 9.29261 47.2188 12.6071 47.2188 16.6953C47.2188 18.1645 46.0282 19.3556 44.559 19.3556H4.28464C2.34593 19.3556 0.774414 17.784 0.774414 15.8453V3.98851C0.774414 2.21546 2.21172 0.77771 3.98522 0.77771Z" fill="#00395F"/>
<path d="M44.5588 20.13H4.28447C1.92188 20.13 0 18.2072 0 15.8451V3.98915C0 1.79133 1.78767 0.00366211 3.98505 0.00366211H26.7008C28.6448 0.00366211 30.4953 0.73627 31.9127 2.06683L38.783 8.51856H39.8159C44.3245 8.51856 47.9929 12.1865 47.9929 16.6955C47.9929 18.589 46.4524 20.13 44.5588 20.13ZM3.98505 1.55215C2.6412 1.55215 1.54804 2.64486 1.54804 3.98915V15.8455C1.54804 17.3541 2.7754 18.5815 4.28447 18.5815H44.5588C45.5984 18.5815 46.4448 17.736 46.4448 16.6955C46.4448 13.0404 43.471 10.0666 39.8159 10.0666H38.4765C38.2794 10.0666 38.0898 9.99175 37.9463 9.85666L30.8528 3.19542C29.7238 2.13549 28.2492 1.55215 26.7008 1.55215H3.98505Z" fill="#00395F"/>
<path d="M33.2854 14.7109H15.4818C15.0539 14.7109 14.7075 14.365 14.7075 13.9371C14.7075 13.5092 15.0539 13.1628 15.4818 13.1628H33.2854C33.7128 13.1628 34.0596 13.5092 34.0596 13.9371C34.0596 14.365 33.7128 14.7109 33.2854 14.7109Z" fill="#00395F"/>
<path d="M3.87109 3.11633H20.9009V10.0668H3.87109V3.11633Z" fill="white"/>
<path d="M20.9005 10.8409H3.87072C3.4433 10.8409 3.09692 10.4945 3.09692 10.0666V3.11616C3.09692 2.68829 3.4433 2.34192 3.87072 2.34192H20.9005C21.3279 2.34192 21.6748 2.68829 21.6748 3.11616V10.0666C21.6748 10.4945 21.3279 10.8409 20.9005 10.8409ZM4.64497 9.29283H20.1263V3.88996H4.64497V9.29283Z" fill="#00395F"/>
<path d="M35.5313 10.0663H23.9961V3.11584H26.2444C27.4421 3.11584 28.5942 3.57118 29.4681 4.38927L35.5313 10.0663Z" fill="white"/>
<path d="M33.5366 8.49895H22.0013C21.5739 8.49895 21.2275 8.15258 21.2275 7.72471V0.774243C21.2275 0.346372 21.5739 0 22.0013 0H24.2497C25.6489 0 26.9821 0.527087 28.0026 1.48293L34.0659 7.16042C34.2975 7.37701 34.3737 7.71364 34.2568 8.00907C34.1399 8.30495 33.8546 8.49895 33.5366 8.49895ZM22.7756 6.95091H31.5771L26.944 2.61241C26.2114 1.92631 25.2542 1.54804 24.2497 1.54804H22.7756V6.95091Z" fill="#00395F"/>
<path d="M13.7215 18.8181C13.7215 21.2525 11.7482 23.2257 9.31386 23.2257C6.87951 23.2257 4.90625 21.2525 4.90625 18.8181C4.90625 16.3838 6.87951 14.4105 9.31386 14.4105C11.7482 14.4105 13.7215 16.3838 13.7215 18.8181Z" fill="white"/>
<path d="M9.31397 24C6.45662 24 4.13257 21.6755 4.13257 18.8182C4.13257 15.9608 6.45707 13.6364 9.31397 13.6364C12.1713 13.6364 14.4958 15.9608 14.4958 18.8182C14.4958 21.6755 12.1713 24 9.31397 24ZM9.31397 15.184C7.31015 15.184 5.68061 16.8139 5.68061 18.8177C5.68061 20.8216 7.31015 22.452 9.31397 22.452C11.3178 22.452 12.9478 20.822 12.9478 18.8182C12.9478 16.8144 11.3173 15.184 9.31397 15.184Z" fill="#00395F"/>
<path d="M11.1845 18.8184C11.1845 19.8515 10.3472 20.6888 9.31418 20.6888C8.28111 20.6888 7.44385 19.8515 7.44385 18.8184C7.44385 17.7854 8.28111 16.9481 9.31418 16.9481C10.3472 16.9481 11.1845 17.7854 11.1845 18.8184Z" fill="#00395F"/>
<path d="M9.31437 21.4632C7.85602 21.4632 6.66968 20.2769 6.66968 18.8185C6.66968 17.3602 7.85602 16.1738 9.31437 16.1738C10.7727 16.1738 11.9591 17.3602 11.9591 18.8185C11.9591 20.2769 10.7727 21.4632 9.31437 21.4632ZM9.31437 17.7221C8.70968 17.7221 8.21795 18.2134 8.21795 18.8185C8.21795 19.4232 8.70968 19.9145 9.31437 19.9145C9.91861 19.9145 10.4108 19.4232 10.4108 18.8185C10.4108 18.2134 9.91861 17.7221 9.31437 17.7221Z" fill="#00395F"/>
<path d="M44.5757 18.8181C44.5757 21.2525 42.602 23.2257 40.1681 23.2257C37.7338 23.2257 35.7605 21.2525 35.7605 18.8181C35.7605 16.3838 37.7338 14.4105 40.1681 14.4105C42.602 14.4105 44.5757 16.3838 44.5757 18.8181Z" fill="white"/>
<path d="M40.1675 24C37.3106 24 34.9861 21.6755 34.9861 18.8182C34.9861 15.9608 37.3106 13.6364 40.1675 13.6364C43.0248 13.6364 45.3493 15.9608 45.3493 18.8182C45.3493 21.6755 43.0248 24 40.1675 24ZM40.1675 15.184C38.1637 15.184 36.5341 16.8139 36.5341 18.8177C36.5341 20.8216 38.1641 22.452 40.1675 22.452C42.1709 22.452 43.8013 20.822 43.8013 18.8182C43.8013 16.8144 42.1713 15.184 40.1675 15.184Z" fill="#00395F"/>
<path d="M42.0387 18.8184C42.0387 19.8515 41.201 20.6888 40.1684 20.6888C39.1353 20.6888 38.2976 19.8515 38.2976 18.8184C38.2976 17.7854 39.1353 16.9481 40.1684 16.9481C41.201 16.9481 42.0387 17.7854 42.0387 18.8184Z" fill="#00395F"/>
<path d="M40.1679 21.4632C38.7095 21.4632 37.5232 20.2769 37.5232 18.8185C37.5232 17.3602 38.7095 16.1738 40.1679 16.1738C41.6262 16.1738 42.8126 17.3602 42.8126 18.8185C42.8126 20.2769 41.6267 21.4632 40.1679 21.4632ZM40.1679 17.7221C39.5636 17.7221 39.0715 18.2134 39.0715 18.8185C39.0715 19.4232 39.5636 19.9145 40.1679 19.9145C40.7726 19.9145 41.2643 19.4232 41.2643 18.8185C41.2643 18.2134 40.7726 17.7221 40.1679 17.7221Z" fill="#00395F"/>
<path d="M45.859 13.163H44.1225C43.695 13.163 43.3481 12.8166 43.3481 12.3887C43.3481 11.9607 43.695 11.6147 44.1225 11.6147H45.859C46.2865 11.6147 46.6334 11.9607 46.6334 12.3887C46.6334 12.8166 46.2865 13.163 45.859 13.163Z" fill="#FFCE56"/>
<path d="M2.5109 17.0334H0.774358C0.346423 17.0334 0 16.687 0 16.259C0 15.8311 0.346423 15.4851 0.774358 15.4851H2.5109C2.93839 15.4851 3.28526 15.8311 3.28526 16.259C3.28526 16.687 2.93839 17.0334 2.5109 17.0334Z" fill="#F53E28"/>
</svg>
