<svg width="414" height="896" viewBox="0 0 414 896" fill="none" xmlns="http://www.w3.org/2000/svg">
<g clip-path="url(#clip0)">
<rect width="414" height="896" fill="#00395F"/>
<mask id="mask0" mask-type="alpha" maskUnits="userSpaceOnUse" x="-1378" y="-77" width="1894" height="982">
<path d="M-1.50354 80.6276C-1.58495 80.628 -1.66535 80.6133 -1.73833 80.5848L-87.7353 41.3589C-87.8059 41.3276 -87.8648 41.282 -87.906 41.2269C-87.9473 41.1718 -87.9693 41.1091 -87.97 41.0451V-37.4067C-87.9693 -37.4707 -87.9473 -37.5334 -87.906 -37.5885C-87.8648 -37.6436 -87.8059 -37.6891 -87.7353 -37.7205L-1.73833 -76.9464C-1.66972 -76.9814 -1.58975 -77 -1.50806 -77C-1.42636 -77 -1.3464 -76.9814 -1.27778 -76.9464L84.7281 -37.7205C84.7977 -37.6888 84.8552 -37.643 84.8949 -37.5878C84.9346 -37.5326 84.955 -37.4701 84.9539 -37.4067V41.0451C84.955 41.1086 84.9346 41.1711 84.8949 41.2262C84.8552 41.2814 84.7977 41.3272 84.7281 41.3589L-1.27778 80.5848C-1.34717 80.6141 -1.42489 80.6288 -1.50354 80.6276ZM-87.049 40.8454L-1.50354 79.8502L84.0418 40.8454V-37.1642L-1.50354 -76.1761L-87.049 -37.1642V40.8454Z" fill="#00395F"/>
<path d="M84.5022 41.416C84.4196 41.4174 84.3381 41.4001 84.2674 41.3661L-87.7354 -37.0857C-87.8401 -37.1335 -87.9167 -37.2119 -87.9488 -37.304C-87.9809 -37.396 -87.9658 -37.4944 -87.9069 -37.5778C-87.8769 -37.6197 -87.8367 -37.6564 -87.7886 -37.6859C-87.7405 -37.7155 -87.6855 -37.7371 -87.6267 -37.7497C-87.5679 -37.7624 -87.5065 -37.7656 -87.4461 -37.7594C-87.3857 -37.7531 -87.3275 -37.7374 -87.2748 -37.7133L84.728 40.7385C84.8333 40.7877 84.9101 40.8673 84.9422 40.9606C84.9742 41.0538 84.9589 41.1533 84.8995 41.2377C84.858 41.2917 84.7997 41.3364 84.7302 41.3676C84.6607 41.3988 84.5822 41.4155 84.5022 41.416Z" fill="#00395F"/>
<path d="M-87.5095 41.416C-87.5895 41.4155 -87.6679 41.3988 -87.7375 41.3676C-87.807 41.3364 -87.8652 41.2917 -87.9068 41.2377C-87.9661 41.1533 -87.9815 41.0538 -87.9494 40.9606C-87.9174 40.8673 -87.8405 40.7877 -87.7352 40.7385L84.2676 -37.7133C84.3203 -37.7374 84.3785 -37.7531 84.4389 -37.7594C84.4993 -37.7656 84.5607 -37.7624 84.6195 -37.7497C84.6783 -37.7371 84.7333 -37.7155 84.7814 -37.6859C84.8295 -37.6564 84.8697 -37.6197 84.8997 -37.5778C84.9586 -37.4944 84.9737 -37.396 84.9416 -37.304C84.9095 -37.2119 84.8328 -37.1335 84.7281 -37.0857L-87.2747 41.3661C-87.3453 41.4001 -87.4268 41.4174 -87.5095 41.416Z" fill="#00395F"/>
<path d="M84.5023 198.319C84.4196 198.321 84.3382 198.303 84.2675 198.269L-1.73835 159.043C-1.8073 159.011 -1.86444 158.965 -1.90403 158.91C-1.94363 158.855 -1.96431 158.793 -1.96411 158.73V80.2779C-1.96343 80.2147 -1.94233 80.1528 -1.90282 80.0978C-1.86331 80.0429 -1.8067 79.9969 -1.73835 79.9641L84.2675 40.7382C84.3378 40.707 84.4171 40.6906 84.4978 40.6906C84.5785 40.6906 84.6578 40.707 84.7281 40.7382L170.734 79.9641C170.802 79.9969 170.859 80.0429 170.898 80.0978C170.938 80.1528 170.959 80.2147 170.96 80.2779V158.73C170.96 158.793 170.939 158.855 170.9 158.91C170.86 158.965 170.803 159.011 170.734 159.043L84.7281 198.269C84.6603 198.302 84.582 198.32 84.5023 198.319ZM-1.0431 158.53L84.5023 197.535L170.039 158.53V80.5204L84.5023 41.5156L-1.0431 80.5204V158.53Z" fill="#00395F"/>
<path d="M84.5023 198.32C84.3802 198.32 84.263 198.281 84.1766 198.213C84.0902 198.145 84.0418 198.052 84.0418 197.956V41.0951C84.0283 41.0423 84.0298 40.9878 84.0463 40.9356C84.0628 40.8833 84.0937 40.8346 84.1369 40.7929C84.1801 40.7513 84.2346 40.7177 84.2962 40.6947C84.3578 40.6716 84.4251 40.6597 84.4933 40.6597C84.5615 40.6597 84.6288 40.6716 84.6904 40.6947C84.752 40.7177 84.8064 40.7513 84.8496 40.7929C84.8928 40.8346 84.9237 40.8833 84.9402 40.9356C84.9567 40.9878 84.9583 41.0423 84.9448 41.0951V197.956C84.946 198.003 84.9356 198.049 84.914 198.093C84.8924 198.136 84.86 198.176 84.8189 198.21C84.7778 198.244 84.7288 198.271 84.6744 198.29C84.6201 198.309 84.5616 198.319 84.5023 198.32Z" fill="#00395F"/>
<path d="M170.499 159.101C170.419 159.101 170.341 159.084 170.273 159.051L-1.73837 80.5992C-1.84214 80.5489 -1.91716 80.4687 -1.94749 80.3755C-1.97781 80.2824 -1.96113 80.1836 -1.90097 80.1C-1.84043 80.0173 -1.74119 79.9567 -1.62461 79.9314C-1.50803 79.906 -1.3834 79.9179 -1.27781 79.9644L170.734 158.416C170.786 158.441 170.832 158.473 170.868 158.511C170.905 158.549 170.931 158.593 170.946 158.639C170.962 158.686 170.965 158.734 170.956 158.781C170.948 158.829 170.927 158.874 170.896 158.915C170.857 158.972 170.8 159.019 170.73 159.051C170.66 159.084 170.58 159.101 170.499 159.101Z" fill="#00395F"/>
<path d="M-1.5033 159.101C-1.58362 159.102 -1.66285 159.086 -1.7327 159.054C-1.80254 159.023 -1.86054 158.977 -1.90069 158.923C-1.93166 158.881 -1.95197 158.836 -1.96055 158.788C-1.96914 158.741 -1.96584 158.693 -1.95074 158.646C-1.93564 158.6 -1.90907 158.556 -1.87258 158.518C-1.8361 158.48 -1.79037 158.448 -1.7381 158.423L170.274 79.9715C170.379 79.925 170.504 79.9131 170.62 79.9385C170.737 79.9638 170.836 80.0244 170.897 80.107C170.957 80.1907 170.974 80.2895 170.943 80.3826C170.913 80.4757 170.838 80.5559 170.734 80.6063L-1.27754 159.058C-1.34592 159.089 -1.42438 159.104 -1.5033 159.101Z" fill="#00395F"/>
<path d="M-1.50354 315.961C-1.58623 315.963 -1.66771 315.946 -1.73833 315.912L-87.7353 276.686C-87.8059 276.654 -87.8648 276.609 -87.906 276.554C-87.9473 276.499 -87.9693 276.436 -87.97 276.372V197.92C-87.9693 197.856 -87.9473 197.793 -87.906 197.738C-87.8648 197.683 -87.8059 197.638 -87.7353 197.606L-1.73833 158.38C-1.66804 158.349 -1.58872 158.333 -1.50806 158.333C-1.42739 158.333 -1.34808 158.349 -1.27778 158.38L84.7281 197.606C84.7977 197.638 84.8552 197.684 84.8949 197.739C84.9346 197.794 84.955 197.857 84.9539 197.92V276.372C84.955 276.435 84.9346 276.498 84.8949 276.553C84.8552 276.608 84.7977 276.654 84.7281 276.686L-1.27778 315.912C-1.34472 315.946 -1.42357 315.964 -1.50354 315.961ZM-87.049 276.172L-1.50354 315.177L84.0418 276.172V198.163L-1.50354 159.158L-87.049 198.163V276.172Z" fill="#00395F"/>
<path d="M84.5024 276.75C84.4203 276.748 84.34 276.731 84.2676 276.7L-87.7352 198.248C-87.7923 198.226 -87.8431 198.195 -87.8844 198.157C-87.9257 198.119 -87.9566 198.075 -87.9752 198.027C-87.9938 197.979 -87.9997 197.929 -87.9925 197.879C-87.9853 197.829 -87.9652 197.781 -87.9334 197.738C-87.9016 197.695 -87.8588 197.657 -87.8078 197.627C-87.7567 197.598 -87.6984 197.577 -87.6366 197.566C-87.5747 197.555 -87.5107 197.554 -87.4484 197.563C-87.3861 197.573 -87.327 197.592 -87.2747 197.62L84.7282 276.072C84.8149 276.112 84.8826 276.174 84.921 276.247C84.9594 276.321 84.9663 276.402 84.9407 276.479C84.9151 276.555 84.8585 276.623 84.7793 276.672C84.7002 276.721 84.6029 276.749 84.5024 276.75Z" fill="#00395F"/>
<path d="M-87.5097 276.75C-87.6102 276.749 -87.7074 276.722 -87.7866 276.673C-87.8657 276.624 -87.9224 276.556 -87.948 276.479C-87.9736 276.402 -87.9666 276.321 -87.9282 276.247C-87.8898 276.174 -87.8222 276.112 -87.7354 276.072L84.2674 197.621C84.3195 197.596 84.3772 197.58 84.4373 197.573C84.4973 197.566 84.5584 197.569 84.6172 197.581C84.6759 197.593 84.7311 197.614 84.7795 197.643C84.828 197.672 84.8687 197.708 84.8995 197.749C84.9589 197.833 84.9742 197.933 84.9421 198.026C84.9101 198.119 84.8333 198.199 84.728 198.248L-87.2749 276.7C-87.3472 276.731 -87.4276 276.748 -87.5097 276.75Z" fill="#00395F"/>
<path d="M84.5023 433.646C84.4209 433.647 84.3405 433.632 84.2675 433.603L-1.73835 394.378C-1.8067 394.345 -1.86331 394.299 -1.90282 394.244C-1.94233 394.189 -1.96343 394.127 -1.96411 394.064V315.612C-1.96343 315.549 -1.94233 315.487 -1.90282 315.432C-1.86331 315.377 -1.8067 315.331 -1.73835 315.298L84.2675 276.072C84.3361 276.037 84.4161 276.019 84.4978 276.019C84.5795 276.019 84.6595 276.037 84.7281 276.072L170.734 315.298C170.802 315.331 170.859 315.377 170.898 315.432C170.938 315.487 170.959 315.549 170.96 315.612V394.064C170.959 394.127 170.938 394.189 170.898 394.244C170.859 394.299 170.802 394.345 170.734 394.378L84.7281 433.603C84.6579 433.631 84.5807 433.646 84.5023 433.646ZM-1.0431 393.864L84.5023 432.869L170.039 393.864V315.854L84.5023 276.843L-1.0431 315.854V393.864Z" fill="#00395F"/>
<path d="M84.5023 433.646C84.4415 433.647 84.3811 433.639 84.3246 433.621C84.2682 433.603 84.217 433.576 84.174 433.542C84.1309 433.508 84.097 433.467 84.0743 433.423C84.0516 433.378 84.0406 433.331 84.0418 433.283V276.429C84.0283 276.376 84.0298 276.322 84.0463 276.269C84.0628 276.217 84.0937 276.168 84.1369 276.127C84.1801 276.085 84.2346 276.052 84.2962 276.029C84.3578 276.005 84.4251 275.994 84.4933 275.994C84.5615 275.994 84.6288 276.005 84.6904 276.029C84.752 276.052 84.8064 276.085 84.8496 276.127C84.8928 276.168 84.9237 276.217 84.9402 276.269C84.9567 276.322 84.9583 276.376 84.9448 276.429V433.283C84.946 433.329 84.9356 433.376 84.914 433.42C84.8924 433.463 84.86 433.503 84.8189 433.537C84.7778 433.571 84.7288 433.598 84.6744 433.616C84.6201 433.635 84.5616 433.645 84.5023 433.646Z" fill="#00395F"/>
<path d="M170.499 394.435C170.42 394.435 170.342 394.418 170.274 394.385L-1.73805 315.933C-1.84119 315.884 -1.91601 315.805 -1.94639 315.713C-1.97677 315.621 -1.96034 315.523 -1.90065 315.441C-1.87154 315.399 -1.8322 315.363 -1.7849 315.333C-1.7376 315.304 -1.68334 315.282 -1.62528 315.27C-1.56722 315.257 -1.50652 315.254 -1.44681 315.26C-1.3871 315.266 -1.32948 315.281 -1.27749 315.305L170.734 393.757C170.837 393.806 170.912 393.885 170.943 393.977C170.973 394.069 170.956 394.167 170.897 394.249C170.859 394.306 170.801 394.353 170.731 394.386C170.661 394.419 170.581 394.436 170.499 394.435Z" fill="#00395F"/>
<path d="M-1.50325 394.435C-1.58467 394.436 -1.66486 394.419 -1.73496 394.386C-1.80507 394.353 -1.86243 394.306 -1.90065 394.249C-1.96034 394.167 -1.97677 394.069 -1.94639 393.977C-1.91601 393.885 -1.84119 393.806 -1.73805 393.757L170.274 315.305C170.326 315.281 170.383 315.266 170.443 315.26C170.503 315.254 170.563 315.257 170.621 315.27C170.679 315.282 170.734 315.304 170.781 315.333C170.828 315.363 170.868 315.399 170.897 315.441C170.956 315.523 170.973 315.621 170.943 315.713C170.912 315.805 170.837 315.884 170.734 315.933L-1.27749 394.385C-1.3449 394.419 -1.42342 394.436 -1.50325 394.435Z" fill="#00395F"/>
<path d="M-1.50354 551.295C-1.58562 551.293 -1.66599 551.276 -1.73833 551.245L-87.7353 512.02C-87.8066 511.987 -87.8658 511.94 -87.907 511.884C-87.9482 511.828 -87.9699 511.764 -87.97 511.699V433.247C-87.9693 433.183 -87.9473 433.12 -87.906 433.065C-87.8648 433.01 -87.8059 432.964 -87.7353 432.933L-1.73833 393.707C-1.66804 393.676 -1.58872 393.66 -1.50806 393.66C-1.42739 393.66 -1.34808 393.676 -1.27778 393.707L84.7281 432.933C84.7977 432.965 84.8552 433.011 84.8949 433.066C84.9346 433.121 84.955 433.183 84.9539 433.247V511.699C84.9547 511.763 84.9344 511.826 84.8948 511.883C84.8552 511.939 84.7978 511.986 84.7281 512.02L-1.27778 551.245C-1.34647 551.277 -1.42415 551.294 -1.50354 551.295ZM-87.049 511.506L-1.50354 550.511L84.0418 511.506V433.497L-1.50354 394.492L-87.049 433.497V511.506Z" fill="#00395F"/>
<path d="M84.5024 512.077C84.421 512.077 84.3406 512.062 84.2676 512.034L-87.7352 433.582C-87.8418 433.534 -87.9197 433.454 -87.9518 433.361C-87.984 433.267 -87.9678 433.167 -87.9067 433.083C-87.8457 432.999 -87.7447 432.937 -87.6262 432.912C-87.5077 432.886 -87.3812 432.899 -87.2747 432.947L84.7282 511.399C84.8479 511.423 84.9508 511.483 85.0143 511.567C85.0779 511.65 85.0968 511.75 85.0668 511.845C85.0369 511.94 84.9606 512.021 84.8547 512.071C84.7489 512.121 84.6222 512.136 84.5024 512.112V512.077Z" fill="#00395F"/>
<path d="M-87.5096 512.077C-87.6294 512.1 -87.7561 512.086 -87.8619 512.035C-87.9678 511.985 -88.0441 511.904 -88.074 511.809C-88.1039 511.715 -88.085 511.615 -88.0215 511.531C-87.958 511.447 -87.8551 511.387 -87.7354 511.364L84.2675 432.912C84.3202 432.888 84.3784 432.872 84.4388 432.866C84.4991 432.86 84.5603 432.864 84.619 432.876C84.6777 432.889 84.7327 432.91 84.7808 432.94C84.829 432.969 84.8693 433.006 84.8996 433.047C84.9298 433.089 84.9494 433.135 84.9571 433.183C84.9648 433.23 84.9607 433.279 84.9447 433.325C84.9288 433.371 84.9015 433.415 84.8643 433.453C84.8271 433.491 84.7808 433.523 84.728 433.547L-87.2748 511.998C-87.3437 512.039 -87.4243 512.066 -87.5096 512.077Z" fill="#00395F"/>
<path d="M84.5023 668.98C84.4196 668.981 84.3382 668.964 84.2675 668.93L-1.73835 629.704C-1.8067 629.671 -1.86331 629.625 -1.90282 629.57C-1.94233 629.516 -1.96343 629.454 -1.96411 629.39V550.939C-1.96343 550.876 -1.94233 550.814 -1.90282 550.759C-1.86331 550.704 -1.8067 550.658 -1.73835 550.625L84.2675 511.399C84.3378 511.368 84.4171 511.351 84.4978 511.351C84.5785 511.351 84.6578 511.368 84.7281 511.399L170.734 550.625C170.802 550.658 170.859 550.704 170.898 550.759C170.938 550.814 170.959 550.876 170.96 550.939V629.39C170.959 629.454 170.938 629.516 170.898 629.57C170.859 629.625 170.802 629.671 170.734 629.704L84.7281 668.93C84.6603 668.963 84.582 668.98 84.5023 668.98ZM-1.0431 629.191L84.5023 668.196L170.039 629.191V551.181L84.5023 512.176L-1.0431 551.181V629.191Z" fill="#00395F"/>
<path d="M84.5023 668.98C84.3802 668.98 84.263 668.942 84.1766 668.874C84.0902 668.806 84.0418 668.713 84.0418 668.617V511.756C84.0283 511.703 84.0298 511.649 84.0463 511.596C84.0628 511.544 84.0937 511.495 84.1369 511.454C84.1801 511.412 84.2346 511.378 84.2962 511.355C84.3578 511.332 84.4251 511.32 84.4933 511.32C84.5615 511.32 84.6288 511.332 84.6904 511.355C84.752 511.378 84.8064 511.412 84.8496 511.454C84.8928 511.495 84.9237 511.544 84.9402 511.596C84.9567 511.649 84.9583 511.703 84.9448 511.756V668.617C84.946 668.663 84.9356 668.71 84.914 668.754C84.8924 668.797 84.86 668.837 84.8189 668.871C84.7778 668.905 84.7288 668.932 84.6744 668.95C84.6201 668.969 84.5616 668.979 84.5023 668.98Z" fill="#00395F"/>
<path d="M170.499 629.769C170.42 629.766 170.343 629.749 170.274 629.719L-1.7381 551.267C-1.79037 551.243 -1.8361 551.211 -1.87258 551.172C-1.90907 551.134 -1.93564 551.091 -1.95074 551.044C-1.96584 550.998 -1.96914 550.949 -1.96055 550.902C-1.95197 550.855 -1.93166 550.809 -1.90069 550.768C-1.83867 550.686 -1.7387 550.627 -1.62224 550.603C-1.50579 550.579 -1.38204 550.592 -1.27754 550.639L170.734 629.091C170.837 629.14 170.912 629.219 170.942 629.311C170.973 629.403 170.956 629.501 170.897 629.583C170.859 629.64 170.801 629.687 170.731 629.72C170.661 629.753 170.581 629.77 170.499 629.769Z" fill="#00395F"/>
<path d="M-1.50325 629.769C-1.58467 629.77 -1.66486 629.753 -1.73496 629.72C-1.80507 629.687 -1.86243 629.64 -1.90065 629.583C-1.96034 629.501 -1.97677 629.403 -1.94639 629.311C-1.91601 629.219 -1.84119 629.14 -1.73805 629.091L170.274 550.639C170.378 550.592 170.502 550.579 170.618 550.603C170.735 550.627 170.835 550.686 170.897 550.768C170.928 550.809 170.948 550.855 170.957 550.902C170.965 550.949 170.962 550.998 170.947 551.044C170.932 551.091 170.905 551.134 170.869 551.172C170.832 551.211 170.787 551.243 170.734 551.267L-1.27749 629.719C-1.34662 629.749 -1.42403 629.767 -1.50325 629.769Z" fill="#00395F"/>
<path d="M-1.50354 786.622C-1.58495 786.623 -1.66535 786.608 -1.73833 786.579L-87.7353 747.354C-87.8059 747.322 -87.8648 747.277 -87.906 747.222C-87.9473 747.166 -87.9693 747.104 -87.97 747.04V668.588C-87.9693 668.524 -87.9473 668.461 -87.906 668.406C-87.8648 668.351 -87.8059 668.306 -87.7353 668.274L-1.73833 629.048C-1.66804 629.017 -1.58872 629.001 -1.50806 629.001C-1.42739 629.001 -1.34808 629.017 -1.27778 629.048L84.7281 668.274C84.7977 668.306 84.8552 668.352 84.8949 668.407C84.9346 668.462 84.955 668.525 84.9539 668.588V747.04C84.955 747.103 84.9346 747.166 84.8949 747.221C84.8552 747.276 84.7977 747.322 84.7281 747.354L-1.27778 786.579C-1.34717 786.609 -1.42489 786.623 -1.50354 786.622ZM-87.049 746.84L-1.50354 785.845L84.0418 746.84V668.83L-1.50354 629.826L-87.049 668.83V746.84Z" fill="#00395F"/>
<path d="M84.5024 747.411C84.4197 747.412 84.3382 747.395 84.2676 747.361L-87.7352 668.909C-87.7923 668.887 -87.8431 668.856 -87.8844 668.818C-87.9257 668.78 -87.9566 668.736 -87.9752 668.688C-87.9938 668.64 -87.9997 668.59 -87.9925 668.54C-87.9853 668.49 -87.9652 668.442 -87.9334 668.399C-87.9016 668.356 -87.8588 668.318 -87.8078 668.288C-87.7567 668.259 -87.6984 668.238 -87.6366 668.227C-87.5747 668.216 -87.5107 668.215 -87.4484 668.224C-87.3861 668.234 -87.327 668.253 -87.2747 668.281L84.7281 746.733C84.8335 746.782 84.9103 746.862 84.9423 746.955C84.9744 747.049 84.9591 747.148 84.8997 747.232C84.8582 747.286 84.7999 747.331 84.7304 747.362C84.6608 747.394 84.5824 747.41 84.5024 747.411Z" fill="#00395F"/>
<path d="M-87.5095 747.411C-87.5895 747.41 -87.6679 747.394 -87.7375 747.362C-87.807 747.331 -87.8652 747.286 -87.9068 747.232C-87.9661 747.148 -87.9815 747.049 -87.9494 746.955C-87.9174 746.862 -87.8405 746.782 -87.7352 746.733L84.2676 668.281C84.3199 668.253 84.379 668.234 84.4413 668.224C84.5036 668.215 84.5676 668.216 84.6295 668.227C84.6913 668.238 84.7496 668.259 84.8007 668.288C84.8517 668.318 84.8945 668.356 84.9263 668.399C84.9581 668.442 84.9782 668.49 84.9854 668.54C84.9926 668.59 84.9867 668.64 84.9681 668.688C84.9495 668.736 84.9186 668.78 84.8773 668.818C84.836 668.856 84.7852 668.887 84.7281 668.909L-87.2747 747.361C-87.3453 747.395 -87.4268 747.412 -87.5095 747.411Z" fill="#00395F"/>
<path d="M84.5023 904.314C84.4202 904.312 84.3399 904.295 84.2675 904.264L-1.73835 865.038C-1.8073 865.006 -1.86444 864.96 -1.90403 864.905C-1.94363 864.85 -1.96431 864.788 -1.96411 864.724V786.273C-1.96343 786.209 -1.94233 786.148 -1.90282 786.093C-1.86331 786.038 -1.8067 785.992 -1.73835 785.959L84.2675 746.733C84.3378 746.702 84.4171 746.685 84.4978 746.685C84.5785 746.685 84.6578 746.702 84.7281 746.733L170.734 785.959C170.802 785.992 170.859 786.038 170.898 786.093C170.938 786.148 170.959 786.209 170.96 786.273V864.724C170.96 864.788 170.939 864.85 170.9 864.905C170.86 864.96 170.803 865.006 170.734 865.038L84.7281 904.264C84.6585 904.294 84.5813 904.311 84.5023 904.314ZM-1.0431 864.525L84.5023 903.53L170.039 864.525V786.515L84.5023 747.51L-1.0431 786.515V864.525Z" fill="#00395F"/>
<path d="M84.5023 904.314C84.3802 904.314 84.263 904.276 84.1766 904.208C84.0902 904.139 84.0418 904.047 84.0418 903.95V747.09C84.0283 747.037 84.0298 746.982 84.0463 746.93C84.0628 746.878 84.0937 746.829 84.1369 746.787C84.1801 746.746 84.2346 746.712 84.2962 746.689C84.3578 746.666 84.4251 746.654 84.4933 746.654C84.5615 746.654 84.6288 746.666 84.6904 746.689C84.752 746.712 84.8064 746.746 84.8496 746.787C84.8928 746.829 84.9237 746.878 84.9402 746.93C84.9567 746.982 84.9583 747.037 84.9448 747.09V903.95C84.946 903.997 84.9356 904.044 84.914 904.087C84.8924 904.131 84.86 904.171 84.8189 904.205C84.7778 904.238 84.7288 904.265 84.6744 904.284C84.6201 904.303 84.5616 904.313 84.5023 904.314Z" fill="#00395F"/>
<path d="M170.499 865.096C170.419 865.096 170.341 865.079 170.273 865.046L-1.73837 786.594C-1.84214 786.544 -1.91716 786.463 -1.94749 786.37C-1.97781 786.277 -1.96113 786.178 -1.90097 786.095C-1.84043 786.012 -1.74119 785.951 -1.62461 785.926C-1.50803 785.901 -1.3834 785.913 -1.27781 785.959L170.734 864.411C170.786 864.435 170.832 864.467 170.868 864.506C170.905 864.544 170.931 864.587 170.946 864.634C170.962 864.68 170.965 864.729 170.956 864.776C170.948 864.823 170.927 864.869 170.896 864.91C170.857 864.966 170.8 865.013 170.73 865.046C170.66 865.079 170.58 865.096 170.499 865.096Z" fill="#00395F"/>
<path d="M-1.5033 865.096C-1.58362 865.096 -1.66285 865.08 -1.7327 865.049C-1.80254 865.018 -1.86054 864.972 -1.90069 864.917C-1.93166 864.876 -1.95197 864.83 -1.96055 864.783C-1.96914 864.736 -1.96584 864.687 -1.95074 864.641C-1.93564 864.595 -1.90907 864.551 -1.87258 864.513C-1.8361 864.474 -1.79037 864.442 -1.7381 864.418L170.274 785.966C170.379 785.92 170.504 785.908 170.62 785.933C170.737 785.959 170.836 786.019 170.897 786.102C170.957 786.185 170.974 786.284 170.943 786.377C170.913 786.47 170.838 786.551 170.734 786.601L-1.27754 865.053C-1.34592 865.084 -1.42438 865.099 -1.5033 865.096Z" fill="#00395F"/>
<path d="M170.499 80.6276C170.421 80.6288 170.343 80.6141 170.273 80.5848L84.2676 41.3589C84.198 41.3272 84.1403 41.2814 84.1007 41.2262C84.061 41.1711 84.0407 41.1086 84.0418 41.0451V-37.4067C84.0407 -37.4701 84.061 -37.5326 84.1007 -37.5878C84.1403 -37.643 84.198 -37.6888 84.2676 -37.7205L170.273 -76.9464C170.342 -76.9814 170.422 -77 170.504 -77C170.585 -77 170.665 -76.9814 170.734 -76.9464L256.731 -37.7205C256.801 -37.6891 256.86 -37.6436 256.902 -37.5885C256.943 -37.5334 256.965 -37.4707 256.966 -37.4067V41.0451C256.965 41.1091 256.943 41.1718 256.902 41.2269C256.86 41.282 256.801 41.3276 256.731 41.3589L170.734 80.5848C170.661 80.6133 170.581 80.628 170.499 80.6276ZM84.9539 40.8454L170.499 79.8502L256.044 40.8454V-37.1642L170.499 -76.1761L84.9539 -37.1642V40.8454Z" fill="#00395F"/>
<path d="M170.499 80.6273C170.377 80.6273 170.26 80.589 170.174 80.5208C170.087 80.4526 170.039 80.3601 170.039 80.2636V-76.59C170.039 -76.6378 170.051 -76.6851 170.074 -76.7292C170.097 -76.7733 170.131 -76.8134 170.174 -76.8472C170.217 -76.881 170.267 -76.9078 170.323 -76.9261C170.379 -76.9443 170.439 -76.9537 170.499 -76.9537C170.56 -76.9537 170.62 -76.9443 170.676 -76.9261C170.732 -76.9078 170.782 -76.881 170.825 -76.8472C170.868 -76.8134 170.902 -76.7733 170.925 -76.7292C170.948 -76.6851 170.96 -76.6378 170.96 -76.59V80.2636C170.96 80.3601 170.911 80.4526 170.825 80.5208C170.739 80.589 170.622 80.6273 170.499 80.6273Z" fill="#00395F"/>
<path d="M256.505 41.416C256.422 41.4174 256.341 41.4001 256.27 41.3661L84.2676 -37.0857C84.1629 -37.1335 84.0862 -37.2119 84.0541 -37.304C84.022 -37.396 84.037 -37.4944 84.0959 -37.5778C84.1259 -37.6197 84.1661 -37.6564 84.2142 -37.6859C84.2623 -37.7155 84.3173 -37.7371 84.3761 -37.7497C84.4349 -37.7624 84.4964 -37.7656 84.5568 -37.7594C84.6172 -37.7531 84.6754 -37.7374 84.7281 -37.7133L256.731 40.7385C256.784 40.7622 256.83 40.7939 256.868 40.8319C256.905 40.8699 256.933 40.9134 256.949 40.9598C256.965 41.0063 256.969 41.0547 256.961 41.1024C256.953 41.1501 256.933 41.1961 256.902 41.2377C256.861 41.2917 256.803 41.3364 256.733 41.3676C256.664 41.3988 256.585 41.4155 256.505 41.416Z" fill="#00395F"/>
<path d="M84.5023 41.416C84.4209 41.416 84.3409 41.3997 84.2698 41.3685C84.1987 41.3373 84.1388 41.2923 84.0958 41.2377C84.0365 41.1533 84.0212 41.0538 84.0533 40.9606C84.0853 40.8674 84.1622 40.7877 84.2675 40.7385L256.27 -37.7133C256.323 -37.7374 256.381 -37.7531 256.442 -37.7594C256.502 -37.7656 256.563 -37.7624 256.622 -37.7497C256.681 -37.7371 256.736 -37.7155 256.784 -37.6859C256.832 -37.6564 256.872 -37.6197 256.902 -37.5778C256.933 -37.5367 256.952 -37.4913 256.96 -37.4441C256.968 -37.3969 256.964 -37.349 256.948 -37.3032C256.932 -37.2573 256.904 -37.2144 256.867 -37.1771C256.83 -37.1397 256.783 -37.1087 256.731 -37.0857L84.728 41.3661C84.6602 41.3992 84.582 41.4165 84.5023 41.416Z" fill="#00395F"/>
<path d="M256.505 198.319C256.423 198.321 256.341 198.303 256.27 198.269L170.274 159.043C170.202 159.013 170.143 158.967 170.102 158.912C170.06 158.857 170.039 158.794 170.039 158.73V80.2779C170.04 80.2139 170.062 80.1512 170.103 80.0961C170.144 80.041 170.203 79.9955 170.274 79.9641L256.27 40.7382C256.341 40.707 256.42 40.6906 256.501 40.6906C256.581 40.6906 256.661 40.707 256.731 40.7382L342.737 79.9641C342.806 79.9958 342.864 80.0416 342.904 80.0968C342.943 80.1519 342.964 80.2145 342.963 80.2779V158.73C342.965 158.793 342.945 158.856 342.905 158.911C342.865 158.967 342.807 159.012 342.737 159.043L256.731 198.269C256.663 198.302 256.585 198.32 256.505 198.319ZM170.96 158.53L256.505 197.535L342.042 158.53V80.5204L256.505 41.5156L170.96 80.5204V158.53Z" fill="#00395F"/>
<path d="M256.505 198.32C256.383 198.32 256.266 198.281 256.179 198.213C256.093 198.145 256.044 198.052 256.044 197.956V41.0951C256.031 41.0423 256.033 40.9878 256.049 40.9356C256.066 40.8833 256.096 40.8346 256.14 40.7929C256.183 40.7513 256.237 40.7177 256.299 40.6947C256.36 40.6716 256.428 40.6597 256.496 40.6597C256.564 40.6597 256.631 40.6716 256.693 40.6947C256.755 40.7177 256.809 40.7513 256.852 40.7929C256.895 40.8346 256.926 40.8833 256.943 40.9356C256.959 40.9878 256.961 41.0423 256.947 41.0951V197.956C256.948 198.05 256.902 198.14 256.819 198.208C256.737 198.276 256.624 198.316 256.505 198.32Z" fill="#00395F"/>
<path d="M342.502 159.101C342.422 159.101 342.344 159.084 342.276 159.051L170.273 80.5991C170.22 80.5754 170.174 80.5436 170.136 80.5056C170.099 80.4677 170.071 80.4242 170.055 80.3778C170.04 80.3313 170.035 80.2829 170.043 80.2351C170.051 80.1874 170.071 80.1415 170.102 80.0998C170.164 80.0167 170.265 79.956 170.383 79.9307C170.501 79.9054 170.627 79.9174 170.734 79.9643L342.737 158.416C342.789 158.44 342.835 158.473 342.871 158.511C342.908 158.549 342.934 158.593 342.949 158.639C342.964 158.685 342.968 158.734 342.959 158.781C342.95 158.829 342.93 158.874 342.899 158.915C342.86 158.972 342.803 159.019 342.733 159.051C342.663 159.084 342.583 159.101 342.502 159.101Z" fill="#00395F"/>
<path d="M170.499 159.101C170.38 159.124 170.253 159.109 170.147 159.059C170.041 159.009 169.965 158.928 169.935 158.833C169.905 158.739 169.924 158.639 169.987 158.555C170.051 158.471 170.154 158.411 170.274 158.388L342.276 79.9357C342.383 79.8875 342.509 79.8747 342.628 79.9001C342.746 79.9255 342.847 79.9871 342.908 80.0713C342.969 80.1554 342.986 80.2553 342.954 80.3489C342.921 80.4426 342.843 80.5223 342.737 80.5705L170.734 159.022C170.667 159.065 170.585 159.093 170.499 159.101Z" fill="#00395F"/>
<path d="M170.499 315.961C170.419 315.964 170.34 315.946 170.273 315.912L84.2676 276.686C84.198 276.654 84.1403 276.608 84.1007 276.553C84.061 276.498 84.0407 276.435 84.0418 276.372V197.92C84.0407 197.857 84.061 197.794 84.1007 197.739C84.1403 197.684 84.198 197.638 84.2676 197.606L170.273 158.38C170.344 158.349 170.423 158.333 170.504 158.333C170.584 158.333 170.664 158.349 170.734 158.38L256.731 197.606C256.801 197.638 256.86 197.683 256.902 197.738C256.943 197.793 256.965 197.856 256.966 197.92V276.372C256.965 276.436 256.943 276.499 256.902 276.554C256.86 276.609 256.801 276.654 256.731 276.686L170.734 315.912C170.663 315.946 170.582 315.963 170.499 315.961ZM84.9539 276.172L170.499 315.177L256.044 276.172V198.163L170.499 159.158L84.9539 198.163V276.172Z" fill="#00395F"/>
<path d="M170.499 315.962C170.377 315.962 170.26 315.923 170.174 315.855C170.087 315.787 170.039 315.694 170.039 315.598V158.737C170.06 158.655 170.116 158.581 170.199 158.527C170.281 158.474 170.384 158.445 170.49 158.445C170.597 158.445 170.7 158.474 170.782 158.527C170.864 158.581 170.921 158.655 170.942 158.737V315.598C170.942 315.692 170.896 315.782 170.813 315.85C170.731 315.918 170.618 315.958 170.499 315.962Z" fill="#00395F"/>
<path d="M256.505 276.75C256.423 276.748 256.343 276.731 256.27 276.7L84.2676 198.248C84.2105 198.226 84.1596 198.195 84.1183 198.157C84.077 198.119 84.0461 198.075 84.0275 198.027C84.0089 197.979 84.0031 197.929 84.0103 197.879C84.0175 197.829 84.0376 197.781 84.0694 197.738C84.1012 197.695 84.144 197.657 84.1951 197.627C84.2462 197.598 84.3044 197.577 84.3663 197.566C84.4281 197.555 84.4922 197.554 84.5544 197.563C84.6167 197.573 84.6759 197.592 84.7282 197.62L256.731 276.072C256.784 276.095 256.83 276.126 256.867 276.164C256.905 276.201 256.932 276.244 256.948 276.29C256.964 276.336 256.968 276.383 256.96 276.431C256.952 276.478 256.933 276.523 256.902 276.564C256.863 276.62 256.805 276.667 256.735 276.699C256.666 276.732 256.586 276.749 256.505 276.75Z" fill="#00395F"/>
<path d="M84.5024 276.75C84.42 276.75 84.339 276.733 84.2677 276.7C84.1963 276.667 84.1371 276.621 84.0959 276.564C84.037 276.481 84.022 276.383 84.0541 276.29C84.0862 276.198 84.1629 276.12 84.2676 276.072L256.27 197.62C256.323 197.592 256.382 197.573 256.444 197.563C256.506 197.554 256.57 197.555 256.632 197.566C256.694 197.577 256.752 197.598 256.803 197.627C256.854 197.657 256.897 197.695 256.929 197.738C256.961 197.781 256.981 197.829 256.988 197.879C256.995 197.929 256.989 197.979 256.971 198.027C256.952 198.075 256.921 198.119 256.88 198.157C256.839 198.195 256.788 198.226 256.731 198.248L84.7281 276.7C84.6585 276.729 84.5814 276.747 84.5024 276.75Z" fill="#00395F"/>
<path d="M256.505 433.646C256.424 433.647 256.343 433.632 256.27 433.603L170.274 394.378C170.203 394.346 170.144 394.301 170.103 394.246C170.062 394.19 170.04 394.128 170.039 394.064V315.612C170.04 315.548 170.062 315.485 170.103 315.43C170.144 315.375 170.203 315.33 170.274 315.298L256.27 276.072C256.339 276.037 256.419 276.019 256.501 276.019C256.582 276.019 256.662 276.037 256.731 276.072L342.737 315.298C342.806 315.33 342.864 315.376 342.904 315.431C342.943 315.486 342.964 315.549 342.963 315.612V394.064C342.964 394.127 342.943 394.19 342.904 394.245C342.864 394.3 342.806 394.346 342.737 394.378L256.731 433.603C256.661 433.631 256.584 433.646 256.505 433.646ZM170.96 393.864L256.505 432.869L342.042 393.864V315.854L256.505 276.843L170.96 315.854V393.864Z" fill="#00395F"/>
<path d="M256.505 433.646C256.383 433.646 256.266 433.608 256.179 433.54C256.093 433.472 256.044 433.379 256.044 433.283V276.429C256.031 276.376 256.033 276.322 256.049 276.269C256.066 276.217 256.096 276.168 256.14 276.127C256.183 276.085 256.237 276.052 256.299 276.029C256.36 276.005 256.428 275.994 256.496 275.994C256.564 275.994 256.631 276.005 256.693 276.029C256.755 276.052 256.809 276.085 256.852 276.127C256.895 276.168 256.926 276.217 256.943 276.269C256.959 276.322 256.961 276.376 256.947 276.429V433.283C256.948 433.377 256.902 433.467 256.819 433.535C256.737 433.603 256.624 433.643 256.505 433.646Z" fill="#00395F"/>
<path d="M342.502 394.435C342.422 394.435 342.344 394.418 342.276 394.385L170.273 315.933C170.221 315.91 170.174 315.879 170.137 315.841C170.1 315.804 170.072 315.761 170.056 315.715C170.04 315.67 170.036 315.622 170.044 315.574C170.052 315.527 170.071 315.482 170.102 315.441C170.132 315.399 170.172 315.362 170.22 315.333C170.268 315.303 170.323 315.281 170.382 315.269C170.441 315.256 170.502 315.253 170.563 315.259C170.623 315.265 170.681 315.281 170.734 315.305L342.737 393.757C342.789 393.781 342.834 393.812 342.871 393.85C342.907 393.887 342.934 393.93 342.949 393.976C342.964 394.022 342.967 394.07 342.959 394.117C342.95 394.163 342.93 394.209 342.899 394.249C342.861 394.306 342.804 394.353 342.734 394.386C342.664 394.419 342.583 394.436 342.502 394.435Z" fill="#00395F"/>
<path d="M170.499 394.435C170.398 394.433 170.301 394.406 170.222 394.357C170.143 394.308 170.086 394.24 170.061 394.164C170.035 394.087 170.042 394.006 170.08 393.932C170.119 393.859 170.186 393.797 170.273 393.757L342.276 315.305C342.381 315.265 342.5 315.258 342.611 315.285C342.722 315.312 342.816 315.371 342.875 315.451C342.933 315.53 342.951 315.624 342.925 315.713C342.9 315.803 342.832 315.881 342.736 315.933L170.734 394.385C170.663 394.418 170.581 394.435 170.499 394.435Z" fill="#00395F"/>
<path d="M170.499 551.295C170.42 551.294 170.342 551.277 170.273 551.245L84.2676 512.02C84.1979 511.986 84.1405 511.939 84.1009 511.883C84.0613 511.826 84.0409 511.763 84.0418 511.699V433.247C84.0407 433.183 84.061 433.121 84.1007 433.066C84.1403 433.011 84.198 432.965 84.2676 432.933L170.273 393.707C170.344 393.676 170.423 393.66 170.504 393.66C170.584 393.66 170.664 393.676 170.734 393.707L256.731 432.933C256.801 432.964 256.86 433.01 256.902 433.065C256.943 433.12 256.965 433.183 256.966 433.247V511.699C256.966 511.764 256.944 511.828 256.903 511.884C256.861 511.94 256.802 511.987 256.731 512.02L170.734 551.245C170.662 551.276 170.581 551.293 170.499 551.295ZM84.9539 511.506L170.499 550.511L256.044 511.506V433.497L170.499 394.492L84.9539 433.497V511.506Z" fill="#00395F"/>
<path d="M170.499 551.295C170.377 551.295 170.26 551.257 170.174 551.189C170.087 551.121 170.039 551.028 170.039 550.932V394.071C170.06 393.989 170.116 393.914 170.199 393.861C170.281 393.808 170.384 393.779 170.49 393.779C170.597 393.779 170.7 393.808 170.782 393.861C170.864 393.914 170.921 393.989 170.942 394.071V550.932C170.942 551.026 170.896 551.116 170.813 551.184C170.731 551.252 170.618 551.292 170.499 551.295Z" fill="#00395F"/>
<path d="M256.505 512.077C256.424 512.077 256.343 512.062 256.27 512.034L84.2677 433.582C84.1611 433.534 84.0832 433.454 84.051 433.361C84.0188 433.267 84.035 433.167 84.0961 433.083C84.1571 432.999 84.2581 432.937 84.3766 432.912C84.4952 432.886 84.6217 432.899 84.7283 432.947L256.731 511.399C256.784 511.423 256.831 511.455 256.868 511.493C256.905 511.531 256.933 511.574 256.949 511.621C256.965 511.667 256.969 511.715 256.961 511.763C256.953 511.811 256.933 511.857 256.903 511.898C256.861 511.952 256.803 511.997 256.733 512.028C256.664 512.06 256.585 512.076 256.505 512.077Z" fill="#00395F"/>
<path d="M84.5023 512.077C84.4209 512.077 84.3409 512.06 84.2698 512.029C84.1987 511.998 84.1388 511.953 84.0958 511.898C84.0365 511.814 84.0212 511.714 84.0533 511.621C84.0853 511.528 84.1622 511.448 84.2675 511.399L256.27 432.947C256.377 432.9 256.503 432.888 256.621 432.914C256.739 432.939 256.84 433 256.902 433.083C256.933 433.124 256.953 433.17 256.961 433.218C256.969 433.266 256.964 433.314 256.948 433.361C256.933 433.407 256.905 433.451 256.868 433.489C256.83 433.527 256.784 433.558 256.731 433.582L84.728 512.034C84.6579 512.061 84.5807 512.076 84.5023 512.077Z" fill="#00395F"/>
<path d="M256.505 668.98C256.423 668.981 256.341 668.964 256.27 668.93L170.274 629.704C170.203 629.673 170.144 629.627 170.103 629.572C170.062 629.517 170.04 629.454 170.039 629.39V550.939C170.04 550.875 170.062 550.812 170.103 550.757C170.144 550.702 170.203 550.656 170.274 550.625L256.27 511.399C256.341 511.368 256.42 511.351 256.501 511.351C256.581 511.351 256.661 511.368 256.731 511.399L342.737 550.625C342.806 550.657 342.864 550.702 342.904 550.758C342.943 550.813 342.964 550.875 342.963 550.939V629.39C342.964 629.454 342.943 629.516 342.904 629.572C342.864 629.627 342.806 629.673 342.737 629.704L256.731 668.93C256.663 668.963 256.585 668.98 256.505 668.98ZM170.96 629.191L256.505 668.196L342.042 629.191V551.181L256.505 512.176L170.96 551.181V629.191Z" fill="#00395F"/>
<path d="M256.505 668.98C256.383 668.98 256.266 668.942 256.179 668.874C256.093 668.806 256.044 668.713 256.044 668.617V511.756C256.031 511.703 256.033 511.649 256.049 511.596C256.066 511.544 256.096 511.495 256.14 511.454C256.183 511.412 256.237 511.378 256.299 511.355C256.36 511.332 256.428 511.32 256.496 511.32C256.564 511.32 256.631 511.332 256.693 511.355C256.755 511.378 256.809 511.412 256.852 511.454C256.895 511.495 256.926 511.544 256.943 511.596C256.959 511.649 256.961 511.703 256.947 511.756V668.617C256.948 668.711 256.902 668.801 256.819 668.869C256.737 668.937 256.624 668.977 256.505 668.98Z" fill="#00395F"/>
<path d="M342.502 629.769C342.423 629.766 342.346 629.749 342.276 629.719L170.273 551.267C170.22 551.244 170.174 551.212 170.136 551.174C170.099 551.136 170.071 551.092 170.055 551.046C170.04 550.999 170.035 550.951 170.043 550.903C170.051 550.856 170.071 550.81 170.102 550.768C170.132 550.727 170.173 550.691 170.222 550.662C170.27 550.633 170.325 550.612 170.384 550.6C170.443 550.588 170.504 550.586 170.564 550.592C170.624 550.599 170.682 550.615 170.734 550.64L342.737 629.091C342.789 629.115 342.834 629.146 342.87 629.184C342.907 629.222 342.933 629.265 342.948 629.311C342.964 629.356 342.967 629.404 342.959 629.451C342.95 629.498 342.93 629.543 342.899 629.583C342.861 629.64 342.804 629.688 342.734 629.72C342.663 629.753 342.583 629.77 342.502 629.769Z" fill="#00395F"/>
<path d="M170.499 629.769C170.398 629.767 170.301 629.74 170.222 629.691C170.143 629.642 170.086 629.574 170.061 629.497C170.035 629.421 170.042 629.339 170.08 629.266C170.119 629.193 170.186 629.131 170.273 629.091L342.276 550.639C342.381 550.599 342.5 550.592 342.611 550.619C342.722 550.646 342.816 550.705 342.875 550.784C342.933 550.864 342.951 550.958 342.925 551.047C342.9 551.136 342.832 551.215 342.736 551.267L170.734 629.719C170.661 629.748 170.581 629.765 170.499 629.769Z" fill="#00395F"/>
<path d="M170.499 786.622C170.421 786.623 170.343 786.609 170.273 786.579L84.2676 747.354C84.198 747.322 84.1403 747.276 84.1007 747.221C84.061 747.166 84.0407 747.103 84.0418 747.04V668.588C84.0407 668.525 84.061 668.462 84.1007 668.407C84.1403 668.352 84.198 668.306 84.2676 668.274L170.273 629.048C170.344 629.017 170.423 629.001 170.504 629.001C170.584 629.001 170.664 629.017 170.734 629.048L256.731 668.274C256.801 668.306 256.86 668.351 256.902 668.406C256.943 668.461 256.965 668.524 256.966 668.588V747.04C256.965 747.104 256.943 747.166 256.902 747.222C256.86 747.277 256.801 747.322 256.731 747.354L170.734 786.579C170.661 786.608 170.581 786.623 170.499 786.622ZM84.9539 746.84L170.499 785.845L256.044 746.84V668.83L170.499 629.826L84.9539 668.83V746.84Z" fill="#00395F"/>
<path d="M170.499 786.622C170.439 786.623 170.38 786.615 170.324 786.597C170.268 786.58 170.217 786.554 170.174 786.52C170.131 786.487 170.097 786.448 170.074 786.404C170.051 786.36 170.039 786.313 170.039 786.266V629.405C170.06 629.323 170.116 629.249 170.199 629.195C170.281 629.142 170.384 629.113 170.49 629.113C170.597 629.113 170.7 629.142 170.782 629.195C170.864 629.249 170.921 629.323 170.942 629.405V786.266C170.942 786.359 170.896 786.449 170.813 786.515C170.73 786.582 170.618 786.62 170.499 786.622Z" fill="#00395F"/>
<path d="M256.505 747.411C256.422 747.412 256.341 747.395 256.27 747.361L84.2676 668.909C84.2105 668.887 84.1596 668.856 84.1183 668.818C84.077 668.78 84.0461 668.736 84.0275 668.688C84.0089 668.64 84.0031 668.59 84.0103 668.54C84.0175 668.49 84.0376 668.442 84.0694 668.399C84.1012 668.356 84.144 668.318 84.1951 668.288C84.2462 668.259 84.3044 668.238 84.3663 668.227C84.4281 668.216 84.4922 668.215 84.5544 668.224C84.6167 668.234 84.6759 668.253 84.7282 668.281L256.731 746.733C256.784 746.757 256.83 746.789 256.868 746.827C256.905 746.865 256.933 746.908 256.949 746.955C256.965 747.001 256.969 747.049 256.961 747.097C256.953 747.145 256.933 747.191 256.902 747.232C256.861 747.286 256.803 747.331 256.733 747.362C256.664 747.394 256.585 747.41 256.505 747.411Z" fill="#00395F"/>
<path d="M84.5023 747.411C84.4209 747.411 84.3409 747.394 84.2698 747.363C84.1987 747.332 84.1388 747.287 84.0958 747.232C84.0365 747.148 84.0212 747.048 84.0533 746.955C84.0853 746.862 84.1622 746.782 84.2675 746.733L256.27 668.281C256.323 668.257 256.381 668.241 256.442 668.235C256.502 668.229 256.563 668.232 256.622 668.245C256.681 668.257 256.736 668.279 256.784 668.309C256.832 668.338 256.872 668.375 256.902 668.417C256.933 668.458 256.952 668.503 256.96 668.55C256.968 668.598 256.964 668.646 256.948 668.691C256.932 668.737 256.904 668.78 256.867 668.817C256.83 668.855 256.783 668.886 256.731 668.909L84.728 747.361C84.6602 747.394 84.582 747.411 84.5023 747.411Z" fill="#00395F"/>
<path d="M256.505 904.314C256.423 904.312 256.343 904.295 256.27 904.264L170.274 865.038C170.202 865.007 170.143 864.962 170.102 864.907C170.06 864.852 170.039 864.789 170.039 864.724V786.273C170.04 786.209 170.062 786.146 170.103 786.091C170.144 786.036 170.203 785.99 170.274 785.959L256.27 746.733C256.341 746.702 256.42 746.685 256.501 746.685C256.581 746.685 256.661 746.702 256.731 746.733L342.737 785.959C342.806 785.991 342.864 786.036 342.904 786.092C342.943 786.147 342.964 786.209 342.963 786.273V864.724C342.965 864.788 342.945 864.851 342.905 864.906C342.865 864.961 342.807 865.007 342.737 865.038L256.731 904.264C256.661 904.294 256.584 904.311 256.505 904.314ZM170.96 864.525L256.505 903.53L342.042 864.525V786.515L256.505 747.51L170.96 786.515V864.525Z" fill="#00395F"/>
<path d="M256.506 904.314C256.384 904.314 256.266 904.276 256.18 904.208C256.094 904.139 256.045 904.047 256.045 903.95V747.09C256.066 747.007 256.123 746.933 256.205 746.88C256.287 746.827 256.39 746.798 256.497 746.798C256.603 746.798 256.706 746.827 256.788 746.88C256.871 746.933 256.927 747.007 256.948 747.09V903.95C256.948 904.044 256.902 904.135 256.82 904.203C256.737 904.27 256.625 904.31 256.506 904.314Z" fill="#00395F"/>
<path d="M342.502 865.095C342.422 865.096 342.344 865.079 342.276 865.045L170.273 786.594C170.22 786.57 170.174 786.538 170.136 786.5C170.099 786.462 170.071 786.419 170.055 786.372C170.04 786.326 170.035 786.277 170.043 786.23C170.051 786.182 170.071 786.136 170.102 786.094C170.164 786.011 170.265 785.951 170.383 785.925C170.501 785.9 170.627 785.912 170.734 785.959L342.737 864.411C342.789 864.435 342.835 864.467 342.871 864.505C342.908 864.544 342.934 864.587 342.949 864.634C342.964 864.68 342.968 864.728 342.959 864.776C342.95 864.823 342.93 864.869 342.899 864.91C342.86 864.966 342.803 865.013 342.733 865.046C342.663 865.078 342.583 865.096 342.502 865.095Z" fill="#00395F"/>
<path d="M170.499 865.095C170.38 865.119 170.253 865.104 170.147 865.054C170.041 865.004 169.965 864.922 169.935 864.828C169.905 864.733 169.924 864.633 169.987 864.55C170.051 864.466 170.154 864.406 170.274 864.382L342.276 785.93C342.383 785.882 342.509 785.869 342.628 785.895C342.687 785.907 342.742 785.929 342.79 785.958C342.838 785.988 342.878 786.024 342.908 786.066C342.939 786.108 342.958 786.154 342.966 786.201C342.974 786.249 342.97 786.297 342.954 786.344C342.938 786.39 342.91 786.433 342.873 786.471C342.836 786.509 342.79 786.541 342.737 786.565L170.734 865.017C170.667 865.06 170.585 865.087 170.499 865.095Z" fill="#00395F"/>
<path d="M342.502 80.6276C342.423 80.6279 342.346 80.6132 342.276 80.5848L256.27 41.3589C256.202 41.3261 256.145 41.2801 256.106 41.2252C256.066 41.1702 256.045 41.1083 256.044 41.0451V-37.4067C256.045 -37.4698 256.066 -37.5318 256.106 -37.5867C256.145 -37.6417 256.202 -37.6877 256.27 -37.7205L342.276 -76.9464C342.345 -76.9814 342.425 -77 342.506 -77C342.588 -77 342.668 -76.9814 342.737 -76.9464L428.733 -37.7205C428.804 -37.6891 428.863 -37.6436 428.904 -37.5885C428.945 -37.5334 428.967 -37.4707 428.968 -37.4067V41.0451C428.967 41.1091 428.945 41.1718 428.904 41.2269C428.863 41.282 428.804 41.3275 428.733 41.3589L342.737 80.5848C342.664 80.6133 342.583 80.6279 342.502 80.6276ZM256.965 40.8454L342.502 79.8502L428.047 40.8454V-37.1642L342.502 -76.1761L256.965 -37.1642V40.8454Z" fill="#00395F"/>
<path d="M342.502 80.6273C342.38 80.6273 342.263 80.589 342.177 80.5208C342.09 80.4526 342.042 80.3601 342.042 80.2636V-76.59C342.042 -76.6378 342.054 -76.6851 342.077 -76.7292C342.1 -76.7733 342.134 -76.8134 342.177 -76.8472C342.219 -76.881 342.27 -76.9078 342.326 -76.9261C342.382 -76.9443 342.442 -76.9537 342.502 -76.9537C342.563 -76.9537 342.623 -76.9443 342.679 -76.9261C342.734 -76.9078 342.785 -76.881 342.828 -76.8472C342.871 -76.8134 342.905 -76.7733 342.928 -76.7292C342.951 -76.6851 342.963 -76.6378 342.963 -76.59V80.2636C342.963 80.3601 342.914 80.4526 342.828 80.5208C342.742 80.589 342.624 80.6273 342.502 80.6273Z" fill="#00395F"/>
<path d="M428.508 41.4161C428.425 41.4175 428.344 41.4001 428.273 41.3662L256.271 -37.0856C256.168 -37.1346 256.093 -37.2135 256.062 -37.3055C256.032 -37.3975 256.048 -37.4952 256.108 -37.5777C256.137 -37.6194 256.177 -37.656 256.224 -37.6854C256.271 -37.7149 256.325 -37.7365 256.384 -37.7492C256.442 -37.7618 256.502 -37.7651 256.562 -37.7589C256.622 -37.7528 256.679 -37.7372 256.731 -37.7132L428.734 40.7385C428.821 40.7787 428.888 40.8401 428.927 40.9135C428.965 40.9869 428.972 41.0682 428.947 41.145C428.921 41.2217 428.864 41.2898 428.785 41.3388C428.706 41.3877 428.609 41.4149 428.508 41.4161Z" fill="#00395F"/>
<path d="M256.505 41.416C256.425 41.4169 256.346 41.4009 256.276 41.3695C256.206 41.3382 256.148 41.2927 256.108 41.2377C256.077 41.1966 256.057 41.1509 256.048 41.1035C256.039 41.0561 256.043 41.0078 256.058 40.9614C256.073 40.9151 256.099 40.8715 256.136 40.8332C256.172 40.795 256.218 40.7628 256.27 40.7385L428.273 -37.7133C428.326 -37.7374 428.384 -37.7531 428.444 -37.7594C428.505 -37.7656 428.566 -37.7624 428.625 -37.7497C428.684 -37.7371 428.739 -37.7155 428.787 -37.6859C428.835 -37.6564 428.875 -37.6197 428.905 -37.5778C428.936 -37.5367 428.955 -37.4913 428.963 -37.4441C428.971 -37.3969 428.967 -37.349 428.951 -37.3032C428.935 -37.2573 428.907 -37.2144 428.87 -37.1771C428.833 -37.1397 428.786 -37.1087 428.734 -37.0857L256.731 41.3661C256.663 41.3992 256.585 41.4165 256.505 41.416Z" fill="#00395F"/>
<path d="M428.508 198.319C428.425 198.321 428.344 198.303 428.273 198.269L342.277 159.043C342.205 159.013 342.146 158.967 342.105 158.912C342.063 158.857 342.042 158.794 342.042 158.73V80.2779C342.042 80.2139 342.065 80.1512 342.106 80.0961C342.147 80.041 342.206 79.9955 342.277 79.9641L428.273 40.7382C428.344 40.707 428.423 40.6906 428.504 40.6906C428.584 40.6906 428.664 40.707 428.734 40.7382L514.74 79.9641C514.809 79.9958 514.867 80.0416 514.907 80.0968C514.946 80.1519 514.967 80.2145 514.966 80.2779V158.73C514.968 158.793 514.948 158.856 514.908 158.911C514.868 158.967 514.81 159.012 514.74 159.043L428.734 198.269C428.667 198.303 428.588 198.321 428.508 198.319ZM342.963 158.53L428.508 197.535L514.054 158.53V80.5204L428.508 41.5156L342.963 80.5204V158.53Z" fill="#00395F"/>
<path d="M514.505 159.101C514.425 159.101 514.347 159.084 514.279 159.051L342.276 80.5991C342.223 80.5754 342.177 80.5436 342.139 80.5056C342.102 80.4677 342.075 80.4242 342.059 80.3778C342.043 80.3313 342.038 80.2829 342.046 80.2351C342.054 80.1874 342.074 80.1415 342.105 80.0998C342.167 80.0167 342.268 79.956 342.386 79.9307C342.504 79.9054 342.63 79.9174 342.737 79.9643L514.74 158.416C514.845 158.465 514.922 158.545 514.954 158.638C514.986 158.731 514.971 158.831 514.911 158.915C514.869 158.971 514.81 159.018 514.739 159.05C514.668 159.083 514.587 159.1 514.505 159.101Z" fill="#00395F"/>
<path d="M342.502 159.101C342.422 159.1 342.344 159.084 342.274 159.052C342.205 159.021 342.146 158.977 342.105 158.923C342.074 158.881 342.054 158.835 342.046 158.787C342.038 158.74 342.043 158.691 342.059 158.645C342.075 158.598 342.102 158.555 342.139 158.517C342.177 158.479 342.223 158.447 342.276 158.423L514.279 79.9715C514.332 79.9476 514.39 79.9322 514.45 79.9261C514.511 79.92 514.572 79.9233 514.631 79.9359C514.689 79.9485 514.744 79.97 514.793 79.9994C514.841 80.0288 514.881 80.0653 514.911 80.107C514.941 80.1487 514.961 80.1947 514.969 80.2423C514.977 80.29 514.972 80.3383 514.956 80.3847C514.94 80.4311 514.913 80.4745 514.876 80.5125C514.839 80.5505 514.792 80.5824 514.74 80.6063L342.737 159.058C342.665 159.09 342.584 159.104 342.502 159.101Z" fill="#00395F"/>
<path d="M342.502 315.962C342.422 315.963 342.343 315.945 342.276 315.912L256.27 276.686C256.202 276.653 256.145 276.607 256.106 276.552C256.066 276.497 256.045 276.435 256.044 276.372V197.92C256.045 197.857 256.066 197.795 256.106 197.74C256.145 197.685 256.202 197.639 256.27 197.606L342.276 158.38C342.346 158.349 342.426 158.333 342.506 158.333C342.587 158.333 342.666 158.349 342.737 158.38L428.733 197.606C428.804 197.638 428.863 197.683 428.904 197.738C428.945 197.793 428.967 197.856 428.968 197.92V276.372C428.967 276.436 428.945 276.499 428.904 276.554C428.863 276.609 428.804 276.654 428.733 276.686L342.737 315.912C342.666 315.946 342.584 315.963 342.502 315.962ZM256.965 276.172L342.502 315.177L428.047 276.172V198.163L342.502 159.158L256.965 198.163V276.172Z" fill="#00395F"/>
<path d="M342.502 315.962C342.38 315.962 342.263 315.923 342.177 315.855C342.09 315.787 342.042 315.694 342.042 315.598V158.737C342.028 158.684 342.03 158.63 342.046 158.578C342.063 158.525 342.094 158.477 342.137 158.435C342.18 158.393 342.234 158.36 342.296 158.337C342.358 158.314 342.425 158.302 342.493 158.302C342.561 158.302 342.629 158.314 342.69 158.337C342.752 158.36 342.806 158.393 342.849 158.435C342.893 158.477 342.924 158.525 342.94 158.578C342.956 158.63 342.958 158.684 342.945 158.737V315.598C342.945 315.692 342.899 315.782 342.816 315.85C342.734 315.918 342.621 315.958 342.502 315.962Z" fill="#00395F"/>
<path d="M428.508 276.75C428.426 276.748 428.346 276.731 428.273 276.7L256.27 198.248C256.218 198.224 256.172 198.192 256.136 198.153C256.099 198.115 256.073 198.071 256.058 198.025C256.043 197.979 256.039 197.93 256.048 197.883C256.057 197.836 256.077 197.79 256.108 197.749C256.17 197.667 256.27 197.608 256.386 197.584C256.503 197.56 256.627 197.573 256.731 197.62L428.734 276.072C428.82 276.112 428.888 276.174 428.927 276.247C428.965 276.321 428.972 276.402 428.946 276.479C428.921 276.555 428.864 276.623 428.785 276.672C428.706 276.721 428.608 276.748 428.508 276.75Z" fill="#00395F"/>
<path d="M256.505 276.75C256.424 276.751 256.344 276.734 256.274 276.701C256.204 276.668 256.146 276.621 256.108 276.564C256.048 276.482 256.032 276.384 256.062 276.292C256.093 276.2 256.168 276.121 256.271 276.072L428.273 197.62C428.326 197.592 428.385 197.573 428.447 197.563C428.509 197.554 428.573 197.555 428.635 197.566C428.697 197.577 428.755 197.598 428.806 197.627C428.858 197.657 428.9 197.695 428.932 197.738C428.964 197.781 428.984 197.829 428.991 197.879C428.998 197.929 428.993 197.979 428.974 198.027C428.955 198.075 428.924 198.119 428.883 198.157C428.842 198.195 428.791 198.226 428.734 198.248L256.731 276.7C256.662 276.729 256.584 276.747 256.505 276.75Z" fill="#00395F"/>
<path d="M428.508 433.646C428.427 433.647 428.346 433.632 428.273 433.603L342.277 394.378C342.206 394.346 342.147 394.301 342.106 394.246C342.065 394.19 342.042 394.128 342.042 394.064V315.612C342.042 315.548 342.065 315.485 342.106 315.43C342.147 315.375 342.206 315.33 342.277 315.298L428.273 276.072C428.342 276.037 428.422 276.019 428.504 276.019C428.585 276.019 428.665 276.037 428.734 276.072L514.74 315.298C514.809 315.33 514.867 315.376 514.907 315.431C514.946 315.486 514.967 315.549 514.966 315.612V394.064C514.967 394.127 514.946 394.19 514.907 394.245C514.867 394.3 514.809 394.346 514.74 394.378L428.734 433.603C428.664 433.632 428.587 433.647 428.508 433.646ZM342.963 393.864L428.508 432.869L514.053 393.864V315.854L428.508 276.843L342.963 315.854V393.864Z" fill="#00395F"/>
<path d="M514.505 394.435C514.425 394.435 514.347 394.418 514.279 394.385L342.277 315.933C342.224 315.91 342.177 315.879 342.14 315.841C342.103 315.804 342.075 315.761 342.06 315.715C342.044 315.67 342.039 315.622 342.047 315.574C342.055 315.527 342.075 315.482 342.105 315.441C342.135 315.399 342.175 315.362 342.223 315.333C342.271 315.303 342.326 315.281 342.385 315.269C342.444 315.256 342.505 315.253 342.566 315.259C342.626 315.265 342.684 315.281 342.737 315.305L514.74 393.757C514.845 393.805 514.921 393.883 514.953 393.975C514.985 394.067 514.97 394.166 514.911 394.249C514.87 394.306 514.811 394.352 514.74 394.385C514.668 394.417 514.587 394.435 514.505 394.435Z" fill="#00395F"/>
<path d="M342.502 394.435C342.421 394.434 342.342 394.417 342.272 394.384C342.202 394.352 342.145 394.305 342.105 394.249C342.075 394.208 342.055 394.163 342.047 394.116C342.039 394.068 342.044 394.021 342.06 393.975C342.075 393.929 342.103 393.886 342.14 393.849C342.177 393.811 342.224 393.78 342.277 393.757L514.279 315.305C514.332 315.277 514.391 315.258 514.453 315.248C514.515 315.239 514.579 315.24 514.641 315.251C514.703 315.262 514.761 315.283 514.812 315.312C514.863 315.342 514.906 315.38 514.938 315.423C514.97 315.466 514.99 315.515 514.997 315.564C515.004 315.614 514.998 315.664 514.98 315.712C514.961 315.76 514.93 315.804 514.889 315.842C514.848 315.88 514.797 315.911 514.74 315.933L342.737 394.385C342.666 394.419 342.585 394.436 342.502 394.435Z" fill="#00395F"/>
<path d="M342.502 551.295C342.422 551.293 342.345 551.276 342.276 551.245L256.27 512.02C256.202 511.985 256.145 511.938 256.106 511.882C256.066 511.826 256.045 511.763 256.044 511.699V433.247C256.045 433.184 256.066 433.122 256.106 433.067C256.145 433.012 256.202 432.966 256.27 432.933L342.276 393.707C342.346 393.676 342.426 393.66 342.506 393.66C342.587 393.66 342.666 393.676 342.737 393.707L428.733 432.933C428.804 432.964 428.863 433.01 428.904 433.065C428.945 433.12 428.967 433.183 428.968 433.247V511.699C428.968 511.764 428.946 511.828 428.905 511.884C428.864 511.94 428.805 511.987 428.733 512.02L342.737 551.245C342.664 551.276 342.584 551.293 342.502 551.295ZM256.965 511.506L342.502 550.511L428.047 511.506V433.497L342.502 394.492L256.965 433.497V511.506Z" fill="#00395F"/>
<path d="M342.502 551.296C342.38 551.296 342.263 551.257 342.177 551.189C342.09 551.121 342.042 551.028 342.042 550.932V394.071C342.028 394.018 342.03 393.964 342.046 393.912C342.063 393.859 342.094 393.811 342.137 393.769C342.18 393.727 342.234 393.694 342.296 393.671C342.358 393.648 342.425 393.636 342.493 393.636C342.561 393.636 342.629 393.648 342.69 393.671C342.752 393.694 342.806 393.727 342.849 393.769C342.893 393.811 342.924 393.859 342.94 393.912C342.956 393.964 342.958 394.018 342.945 394.071V550.932C342.945 551.026 342.899 551.116 342.816 551.184C342.734 551.252 342.621 551.292 342.502 551.296Z" fill="#00395F"/>
<path d="M428.508 512.077C428.427 512.077 428.346 512.063 428.273 512.034L256.271 433.582C256.167 433.532 256.092 433.452 256.062 433.359C256.031 433.266 256.048 433.167 256.108 433.083C256.169 433 256.268 432.94 256.384 432.915C256.501 432.889 256.626 432.901 256.731 432.948L428.734 511.399C428.854 511.423 428.957 511.483 429.02 511.567C429.084 511.65 429.102 511.751 429.073 511.845C429.043 511.94 428.966 512.021 428.86 512.071C428.755 512.121 428.628 512.136 428.508 512.113V512.077Z" fill="#00395F"/>
<path d="M256.505 512.077C256.425 512.077 256.346 512.061 256.276 512.03C256.206 511.999 256.148 511.953 256.108 511.898C256.048 511.815 256.031 511.716 256.062 511.623C256.092 511.53 256.167 511.449 256.271 511.399L428.273 432.947C428.38 432.9 428.506 432.888 428.624 432.914C428.742 432.939 428.843 433 428.906 433.083C428.936 433.124 428.956 433.17 428.964 433.218C428.972 433.266 428.968 433.314 428.952 433.361C428.936 433.407 428.908 433.451 428.871 433.489C428.834 433.527 428.787 433.558 428.734 433.582L256.731 512.034C256.661 512.061 256.584 512.076 256.505 512.077Z" fill="#00395F"/>
<path d="M428.508 668.98C428.425 668.981 428.344 668.964 428.273 668.93L342.277 629.704C342.206 629.673 342.147 629.627 342.106 629.572C342.065 629.517 342.042 629.454 342.042 629.39V550.939C342.042 550.875 342.065 550.812 342.106 550.757C342.147 550.702 342.206 550.656 342.277 550.625L428.273 511.399C428.344 511.368 428.423 511.351 428.504 511.351C428.584 511.351 428.664 511.368 428.734 511.399L514.74 550.625C514.809 550.657 514.867 550.702 514.907 550.758C514.946 550.813 514.967 550.875 514.966 550.939V629.39C514.967 629.454 514.946 629.516 514.907 629.572C514.867 629.627 514.809 629.673 514.74 629.704L428.734 668.93C428.667 668.964 428.588 668.981 428.508 668.98ZM342.963 629.191L428.508 668.196L514.053 629.191V551.181L428.508 512.176L342.963 551.181V629.191Z" fill="#00395F"/>
<path d="M514.505 629.768C514.426 629.765 514.349 629.748 514.279 629.718L342.276 551.267C342.223 551.243 342.177 551.211 342.139 551.173C342.102 551.135 342.075 551.092 342.059 551.045C342.043 550.999 342.038 550.95 342.046 550.903C342.054 550.855 342.074 550.809 342.105 550.767C342.169 550.685 342.27 550.626 342.388 550.602C342.506 550.578 342.631 550.591 342.737 550.639L514.74 629.091C514.844 629.139 514.921 629.217 514.953 629.309C514.985 629.401 514.97 629.499 514.911 629.583C514.87 629.639 514.811 629.686 514.74 629.719C514.668 629.751 514.587 629.768 514.505 629.768Z" fill="#00395F"/>
<path d="M342.502 629.768C342.421 629.768 342.342 629.75 342.272 629.718C342.202 629.685 342.145 629.639 342.105 629.583C342.075 629.542 342.055 629.496 342.047 629.449C342.039 629.402 342.044 629.354 342.06 629.308C342.075 629.263 342.103 629.22 342.14 629.182C342.177 629.145 342.224 629.114 342.277 629.091L514.279 550.639C514.332 550.611 514.391 550.591 514.453 550.582C514.515 550.573 514.579 550.573 514.641 550.584C514.703 550.595 514.761 550.616 514.812 550.646C514.863 550.676 514.906 550.713 514.938 550.757C514.97 550.8 514.99 550.848 514.997 550.898C515.004 550.948 514.998 550.998 514.98 551.046C514.961 551.094 514.93 551.138 514.889 551.176C514.848 551.214 514.797 551.245 514.74 551.267L342.737 629.719C342.665 629.749 342.584 629.766 342.502 629.768Z" fill="#00395F"/>
<path d="M342.503 786.622C342.424 786.622 342.347 786.608 342.277 786.579L256.271 747.354C256.203 747.321 256.146 747.275 256.106 747.22C256.067 747.165 256.046 747.103 256.045 747.04V668.588C256.046 668.525 256.067 668.463 256.106 668.408C256.146 668.353 256.203 668.307 256.271 668.274L342.277 629.048C342.347 629.017 342.426 629.001 342.507 629.001C342.588 629.001 342.667 629.017 342.737 629.048L428.734 668.274C428.805 668.306 428.864 668.351 428.905 668.406C428.946 668.461 428.968 668.524 428.969 668.588V747.04C428.968 747.104 428.946 747.166 428.905 747.222C428.864 747.277 428.805 747.322 428.734 747.354L342.737 786.579C342.664 786.608 342.584 786.623 342.503 786.622ZM256.966 746.84L342.503 785.845L428.048 746.84V668.83L342.503 629.826L256.966 668.83V746.84Z" fill="#00395F"/>
<path d="M342.502 786.622C342.442 786.623 342.382 786.614 342.327 786.597C342.271 786.579 342.22 786.553 342.177 786.52C342.134 786.487 342.1 786.447 342.077 786.404C342.054 786.36 342.042 786.313 342.042 786.265V629.405C342.028 629.352 342.03 629.297 342.046 629.245C342.063 629.193 342.094 629.144 342.137 629.103C342.18 629.061 342.234 629.027 342.296 629.004C342.358 628.981 342.425 628.969 342.493 628.969C342.561 628.969 342.629 628.981 342.69 629.004C342.752 629.027 342.806 629.061 342.849 629.103C342.893 629.144 342.924 629.193 342.94 629.245C342.956 629.297 342.958 629.352 342.945 629.405V786.265C342.945 786.359 342.898 786.448 342.816 786.515C342.733 786.582 342.62 786.62 342.502 786.622Z" fill="#00395F"/>
<path d="M428.508 747.41C428.425 747.412 428.344 747.395 428.273 747.361L256.271 668.909C256.168 668.86 256.093 668.781 256.062 668.689C256.032 668.597 256.048 668.499 256.108 668.417C256.137 668.375 256.177 668.338 256.224 668.309C256.271 668.28 256.325 668.258 256.384 668.245C256.442 668.233 256.502 668.229 256.562 668.235C256.622 668.242 256.679 668.257 256.731 668.281L428.734 746.733C428.854 746.757 428.957 746.817 429.02 746.9C429.084 746.984 429.103 747.084 429.073 747.179C429.043 747.273 428.966 747.355 428.86 747.405C428.755 747.455 428.628 747.47 428.508 747.446V747.41Z" fill="#00395F"/>
<path d="M256.505 747.411C256.425 747.411 256.346 747.395 256.276 747.364C256.206 747.333 256.148 747.287 256.108 747.232C256.077 747.191 256.057 747.146 256.048 747.098C256.04 747.051 256.043 747.002 256.058 746.956C256.073 746.91 256.1 746.866 256.136 746.828C256.173 746.79 256.218 746.757 256.271 746.733L428.273 668.281C428.326 668.257 428.384 668.241 428.445 668.235C428.505 668.229 428.567 668.232 428.625 668.245C428.684 668.257 428.739 668.279 428.787 668.309C428.835 668.338 428.876 668.375 428.906 668.417C428.936 668.458 428.956 668.503 428.964 668.55C428.971 668.598 428.967 668.646 428.951 668.691C428.935 668.737 428.908 668.78 428.87 668.817C428.833 668.855 428.787 668.886 428.734 668.909L256.731 747.361C256.663 747.394 256.585 747.411 256.505 747.411Z" fill="#00395F"/>
<path d="M428.508 904.314C428.426 904.312 428.346 904.295 428.273 904.264L342.277 865.038C342.205 865.007 342.146 864.962 342.105 864.907C342.063 864.852 342.042 864.789 342.042 864.724V786.273C342.042 786.209 342.065 786.146 342.106 786.091C342.147 786.036 342.206 785.99 342.277 785.959L428.273 746.733C428.344 746.702 428.423 746.685 428.504 746.685C428.584 746.685 428.664 746.702 428.734 746.733L514.74 785.959C514.809 785.991 514.867 786.036 514.907 786.092C514.946 786.147 514.967 786.209 514.966 786.273V864.724C514.968 864.788 514.948 864.851 514.908 864.906C514.868 864.961 514.81 865.007 514.74 865.038L428.734 904.264C428.665 904.295 428.587 904.312 428.508 904.314ZM342.963 864.525L428.508 903.53L514.054 864.525V786.515L428.508 747.51L342.963 786.515V864.525Z" fill="#00395F"/>
<path d="M514.505 865.095C514.425 865.096 514.347 865.079 514.279 865.045L342.276 786.594C342.223 786.57 342.177 786.538 342.139 786.5C342.102 786.462 342.075 786.419 342.059 786.372C342.043 786.326 342.038 786.277 342.046 786.23C342.054 786.182 342.074 786.136 342.105 786.094C342.167 786.011 342.268 785.951 342.386 785.925C342.504 785.9 342.63 785.912 342.737 785.959L514.74 864.411C514.845 864.46 514.922 864.54 514.954 864.633C514.986 864.726 514.971 864.825 514.911 864.91C514.869 864.966 514.81 865.012 514.739 865.045C514.668 865.077 514.587 865.095 514.505 865.095Z" fill="#00395F"/>
<path d="M342.502 865.095C342.422 865.095 342.344 865.078 342.274 865.047C342.205 865.016 342.146 864.971 342.105 864.917C342.074 864.876 342.054 864.83 342.046 864.782C342.038 864.734 342.043 864.686 342.059 864.639C342.075 864.593 342.102 864.549 342.139 864.511C342.177 864.473 342.223 864.442 342.276 864.418L514.279 785.966C514.332 785.942 514.39 785.927 514.45 785.921C514.511 785.915 514.572 785.918 514.631 785.93C514.689 785.943 514.744 785.965 514.793 785.994C514.841 786.023 514.881 786.06 514.911 786.102C514.941 786.143 514.961 786.189 514.969 786.237C514.977 786.285 514.972 786.333 514.956 786.379C514.94 786.426 514.913 786.469 514.876 786.507C514.839 786.545 514.792 786.577 514.74 786.601L342.737 865.053C342.665 865.084 342.584 865.099 342.502 865.095Z" fill="#00395F"/>
<path d="M75.1017 53.6685L16.7922 80.2565L75.1017 106.873V53.6685Z" fill="#00395F"/>
<path d="M94.3635 53.6685L152.673 80.2565L94.3635 106.873V53.6685Z" fill="#00395F"/>
<path d="M246.879 53.6685L188.569 80.2565L246.879 106.873V53.6685Z" fill="#00395F"/>
<path d="M266.131 53.6685L324.45 80.2565L266.131 106.873V53.6685Z" fill="#00395F"/>
<path d="M418.656 53.6685L360.337 80.2565L418.656 106.873V53.6685Z" fill="#00395F"/>
<path d="M75.1017 -24.7617L16.7922 1.8263L75.1017 28.4428V-24.7617Z" fill="#00395F"/>
<path d="M94.3635 -24.7617L152.673 1.8263L94.3635 28.4428V-24.7617Z" fill="#00395F"/>
<path d="M246.879 -24.7617L188.569 1.8263L246.879 28.4428V-24.7617Z" fill="#00395F"/>
<path d="M266.131 -24.7617L324.45 1.8263L266.131 28.4428V-24.7617Z" fill="#00395F"/>
<path d="M418.656 -24.7617L360.337 1.8263L418.656 28.4428V-24.7617Z" fill="#00395F"/>
<path d="M70.0266 180.29L22.7885 158.751L70.0266 137.191V180.29Z" fill="#00395F"/>
<path d="M99.8993 180.29L147.138 158.751L99.8993 137.191V180.29Z" fill="#00395F"/>
<path d="M242.029 180.34L194.791 158.801L242.029 137.241V180.34Z" fill="#00395F"/>
<path d="M271.902 180.34L319.14 158.801L271.902 137.241V180.34Z" fill="#00395F"/>
<path d="M414.032 180.34L366.802 158.801L414.032 137.241V180.34Z" fill="#00395F"/>
<path d="M11.2748 95.4335L63.7597 119.361L11.2748 143.325V95.4335Z" fill="#00395F"/>
<path d="M158.651 143.325L106.166 119.39L158.651 95.4335V143.325Z" fill="#00395F"/>
<path d="M183.277 143.325L235.762 119.39L183.277 95.4335V143.325Z" fill="#00395F"/>
<path d="M330.654 143.325L278.169 119.39L330.654 95.4335V143.325Z" fill="#00395F"/>
<path d="M355.28 143.325L407.765 119.39L355.28 95.4335V143.325Z" fill="#00395F"/>
<path d="M367.173 349.296L379.22 354.795L367.173 360.294V349.296Z" fill="#00395F"/>
<path d="M317.849 349.296L305.793 354.795L317.849 360.294V349.296Z" fill="#00395F"/>
<path d="M232.303 388.858L220.248 394.349L232.303 399.848V388.858Z" fill="#00395F"/>
<path d="M110.6 388.858L122.656 394.349L110.6 399.848V388.858Z" fill="#00395F"/>
<path d="M196.173 349.296L208.219 354.795L196.173 360.294V349.296Z" fill="#00395F"/>
<path d="M24.1697 349.296L36.2164 354.795L24.1697 360.294V349.296Z" fill="#00395F"/>
<path d="M8.35767 14.3L66.6763 40.8881L8.35767 67.5117V14.3Z" fill="#00395F"/>
<path d="M180.361 14.3L238.679 40.8881L180.361 67.5117V14.3Z" fill="#00395F"/>
<path d="M161.568 14.3L103.259 40.8881L161.568 67.5117V14.3Z" fill="#00395F"/>
<path d="M352.363 14.3L410.682 40.8881L352.363 67.5117V14.3Z" fill="#00395F"/>
<path d="M333.571 14.3L275.261 40.8881L333.571 67.5117V14.3Z" fill="#00395F"/>
<path d="M360.265 178.457L402.78 197.842L360.265 217.241V178.457Z" fill="#00395F"/>
<path d="M325.67 178.457L283.163 197.842L325.67 217.241V178.457Z" fill="#00395F"/>
<path d="M14.679 217.241L57.1943 197.863L14.679 178.457V217.241Z" fill="#00395F"/>
<path d="M155.021 217.241L112.515 197.863L155.021 178.457V217.241Z" fill="#00395F"/>
<path d="M186.23 217.241L228.746 197.863L186.23 178.457V217.241Z" fill="#00395F"/>
<path d="M274.025 219.858L312.286 237.303L274.025 254.769V219.858Z" fill="#00395F"/>
<path d="M411.919 219.858L373.657 237.303L411.919 254.769V219.858Z" fill="#00395F"/>
<path d="M239.916 219.858L201.654 237.303L239.916 254.769V219.858Z" fill="#00395F"/>
<path d="M102.013 219.858L140.275 237.303L102.013 254.769V219.858Z" fill="#00395F"/>
<path d="M67.9045 219.858L29.6516 237.303L67.9045 254.769V219.858Z" fill="#00395F"/>
<path d="M278.828 304.6L302.931 315.591L278.828 326.595V304.6Z" fill="#00395F"/>
<path d="M234.958 304.6L210.856 315.591L234.958 326.595V304.6Z" fill="#00395F"/>
<path d="M406.754 304.6L382.651 315.591L406.754 326.595V304.6Z" fill="#00395F"/>
<path d="M106.781 304.6L130.883 315.591L106.781 326.595V304.6Z" fill="#00395F"/>
<path d="M62.9104 304.6L38.8082 315.591L62.9104 326.595V304.6Z" fill="#00395F"/>
<path d="M325.362 260.61L290.929 276.315L325.362 292.034V260.61Z" fill="#00395F"/>
<path d="M153.36 260.61L118.927 276.315L153.36 292.034V260.61Z" fill="#00395F"/>
<path d="M188.569 260.61L223.002 276.315L188.569 292.034V260.61Z" fill="#00395F"/>
<path d="M360.265 260.61L394.698 276.315L360.265 292.034V260.61Z" fill="#00395F"/>
<path d="M16.5665 260.61L50.9996 276.315L16.5665 292.034V260.61Z" fill="#00395F"/>
</mask>
<g mask="url(#mask0)">
<rect x="-0.34082" y="-1.77002" width="414.704" height="898.748" fill="#003151"/>
</g>
</g>
<defs>
<clipPath id="clip0">
<rect width="414" height="896" fill="white"/>
</clipPath>
</defs>
</svg>
