<svg width="27" height="27" viewBox="0 0 27 27" fill="none" xmlns="http://www.w3.org/2000/svg">
<path d="M10.3019 23.3678V19.9178C10.3018 19.0402 11.0173 18.3272 11.9036 18.3213H15.1505C16.0411 18.3213 16.7631 19.0361 16.7631 19.9178V19.9178V23.3785C16.7629 24.1236 17.3635 24.7325 18.1159 24.75H20.2805C22.4383 24.75 24.1875 23.0183 24.1875 20.8821V20.8821V11.0676C24.176 10.2272 23.7774 9.43802 23.1052 8.92466L15.7024 3.02096C14.4056 1.99301 12.562 1.99301 11.2651 3.02096L3.89478 8.93538C3.22004 9.44665 2.82081 10.2371 2.8125 11.0783V20.8821C2.8125 23.0183 4.56173 24.75 6.71953 24.75H8.88408C9.65515 24.75 10.2802 24.1312 10.2802 23.3678V23.3678" stroke="#2ACC80" stroke-width="2" stroke-linecap="round" stroke-linejoin="round"/>
</svg>
