<svg width="27" height="27" viewBox="0 0 27 27" fill="none" xmlns="http://www.w3.org/2000/svg">
<path d="M15.5808 4.78162V7.50412" stroke="#2ACC80" stroke-width="2" stroke-linecap="round" stroke-linejoin="round"/>
<path d="M15.5808 19.9802V22.2572" stroke="#2ACC80" stroke-width="2" stroke-linecap="round" stroke-linejoin="round"/>
<path d="M15.5808 16.1152V10.6916" stroke="#2ACC80" stroke-width="2" stroke-linecap="round" stroke-linejoin="round"/>
<path fill-rule="evenodd" clip-rule="evenodd" d="M21.0399 22.5C23.0897 22.5 24.75 20.8604 24.75 18.836V15.9195C23.3936 15.9195 22.3012 14.8407 22.3012 13.5012C22.3012 12.1616 23.3936 11.0817 24.75 11.0817L24.7488 8.16396C24.7488 6.13963 23.0874 4.5 21.0387 4.5H5.96128C3.91263 4.5 2.25117 6.13963 2.25117 8.16396L2.25 11.1767C3.60638 11.1767 4.69876 12.1616 4.69876 13.5012C4.69876 14.8407 3.60638 15.9195 2.25 15.9195V18.836C2.25 20.8604 3.91028 22.5 5.96011 22.5H21.0399Z" stroke="#2ACC80" stroke-width="2" stroke-linecap="round" stroke-linejoin="round"/>
</svg>
