<svg width="27" height="27" viewBox="0 0 27 27" fill="none" xmlns="http://www.w3.org/2000/svg">
<path d="M19.7944 12.2984C21.5971 12.2984 23.0594 10.8371 23.0594 9.03447C23.0594 7.23185 21.5971 5.77057 19.7944 5.77057" stroke="#2ACC80" stroke-width="2" stroke-linecap="round" stroke-linejoin="round"/>
<path d="M21.2954 15.8453C21.8337 15.8825 22.3689 15.9588 22.8959 16.0774C23.6281 16.2207 24.5088 16.5208 24.8223 17.1777C25.0223 17.5985 25.0223 18.0883 24.8223 18.5101C24.5098 19.167 23.6281 19.4661 22.8959 19.6166" stroke="#2ACC80" stroke-width="2" stroke-linecap="round" stroke-linejoin="round"/>
<path d="M7.07622 12.2984C5.27359 12.2984 3.81128 10.8371 3.81128 9.03447C3.81128 7.23185 5.27359 5.77057 7.07622 5.77057" stroke="#2ACC80" stroke-width="2" stroke-linecap="round" stroke-linejoin="round"/>
<path d="M5.57535 15.8453C5.03703 15.8825 4.50181 15.9588 3.97485 16.0774C3.24266 16.2207 2.36197 16.5208 2.0495 17.1777C1.84841 17.5985 1.84841 18.0883 2.0495 18.5101C2.36094 19.167 3.24266 19.4661 3.97485 19.6166" stroke="#2ACC80" stroke-width="2" stroke-linecap="round" stroke-linejoin="round"/>
<path fill-rule="evenodd" clip-rule="evenodd" d="M13.43 16.5482C17.0827 16.5482 20.2032 17.101 20.2032 19.313C20.2032 21.524 17.1033 22.0974 13.43 22.0974C9.77627 22.0974 6.65674 21.5446 6.65674 19.3326C6.65674 17.1206 9.75668 16.5482 13.43 16.5482Z" stroke="#2ACC80" stroke-width="2" stroke-linecap="round" stroke-linejoin="round"/>
<path fill-rule="evenodd" clip-rule="evenodd" d="M13.4301 13.393C11.0211 13.393 9.0896 11.4615 9.0896 9.05147C9.0896 6.64247 11.0211 4.71094 13.4301 4.71094C15.8391 4.71094 17.7707 6.64247 17.7707 9.05147C17.7707 11.4615 15.8391 13.393 13.4301 13.393Z" stroke="#2ACC80" stroke-width="2" stroke-linecap="round" stroke-linejoin="round"/>
</svg>
